/* XPM */
static char *_b8fcec215a44c29b308633351f4e948tHe8k2omQjzKs27X[] = {
/* columns rows colors chars-per-pixel */
"64 64 144 2 ",
"   c black",
".  c #09141A",
"X  c #173242",
"o  c #2B5C76",
"O  c #7FB435",
"+  c #7FB438",
"@  c #7EBE3F",
"#  c #7EBE42",
"$  c #7CBE4C",
"%  c #79B551",
"&  c #7BBD53",
"*  c #77BC5F",
"=  c #79BD5C",
"-  c #76BD64",
";  c #78BE60",
":  c #73BB6E",
">  c #7BBE69",
",  c #6FBA7B",
"<  c #70B772",
"1  c #73BC74",
"2  c #70BB79",
"3  c #7DC155",
"4  c #7DC15D",
"5  c #7AC062",
"6  c #79C071",
"7  c #8BAD01",
"8  c #8DB401",
"9  c #8EBC00",
"0  c #8AB40C",
"q  c #90B701",
"w  c #92BD00",
"e  c #90BA08",
"r  c #8BB912",
"t  c #87B419",
"y  c #8BBB19",
"u  c #86BC20",
"i  c #84BD28",
"p  c #81BB33",
"a  c #80BF38",
"s  c #8FC300",
"d  c #8CC10C",
"f  c #93C500",
"g  c #9AC501",
"h  c #96C800",
"j  c #9BCA00",
"k  c #9EC801",
"l  c #9CCB00",
"z  c #9CCA01",
"x  c #9FCE00",
"c  c #93C50B",
"v  c #8BC213",
"b  c #8BC31A",
"n  c #8EC61C",
"m  c #93C714",
"M  c #9ACB10",
"N  c #90C619",
"B  c #A1C700",
"V  c #A1CB01",
"C  c #A2CE00",
"Z  c #A5D000",
"A  c #A9D201",
"S  c #ABD401",
"D  c #85C12B",
"F  c #8CC028",
"G  c #8BC42A",
"H  c #90C121",
"J  c #84C030",
"K  c #83C134",
"L  c #84BF49",
"P  c #82BD4E",
"I  c #85C442",
"U  c #86C548",
"Y  c #326987",
"T  c #336B8A",
"R  c #6DBA85",
"E  c #6EBB8C",
"W  c #70BC84",
"Q  c #70BC89",
"!  c #6ABA92",
"~  c #68B799",
"^  c #67B89D",
"/  c #6CBA98",
"(  c #448FB7",
")  c #4592BC",
"_  c #5DB0B6",
"`  c #5FB6BD",
"'  c #64B4A4",
"]  c #68BAA1",
"[  c #63B5AC",
"{  c #63B7AC",
"}  c #65B8A9",
"|  c #69BBAC",
" . c #71BEA3",
".. c #61B6B5",
"X. c #65B9B2",
"o. c #60B7BE",
"O. c #62B8BD",
"+. c #3686C4",
"@. c #3887C5",
"#. c #398AC6",
"$. c #3C8ECA",
"%. c #3E91CC",
"&. c #4194CE",
"*. c #4297D1",
"=. c #459BD3",
"-. c #489FD6",
";. c #479FD8",
":. c #5DB5C5",
">. c #5CB5CB",
",. c #5BB5CF",
"<. c #5EB8CE",
"1. c #47A0D7",
"2. c #4AA4DA",
"3. c #4EA9DF",
"4. c #51ABDF",
"5. c #57B2D7",
"6. c #5DB6D0",
"7. c #5BB6D4",
"8. c #56B3DB",
"9. c #5AB5DA",
"0. c #5AB6DF",
"q. c #61B8C5",
"w. c #60B8CD",
"e. c #4FACE2",
"r. c #51AEE3",
"t. c #53B1E6",
"y. c #55B3E7",
"u. c #57B5E7",
"i. c #58B6E6",
"p. c #57B5E8",
"a. c #58B6E8",
"s. c #5BB8E9",
"d. c #61BAE9",
"f. c #6DBFEB",
"g. c #72C1EB",
"h. c #7BC5ED",
"j. c #80C7ED",
"k. c #85CAEE",
"l. c #8DCDEF",
"z. c #91CFEF",
"x. c #92D0EF",
"c. c #93CFF0",
"v. c #95D1F0",
"b. c #98D2F1",
/* pixels */
"9 s f j g 9 f f f h h f j k h f j h h j s s s s s s s s f f f j j k 9 s s s s s s s f h f h f j g f h x w s 9 f f f s s f h f g ",
"s s f h w s s s s f h f h f h f h h f f s s s s s s s s f f f g g 9 s s s s s s s s f h f f f h f h h k f C A 9 s s s s s s s s ",
"s s h h f h f s s s f f f h f s h f s s s s f s s s s f f f f h C k 9 f s s s s s s s f f s f f f h h f h f k C 9 s s s s s s s ",
"s s f f f w 9 9 s s s s f f f f s s s s s f j s k f s s s s s f s s j C s h k s s s s s s s s s f f s f h f h g 9 s s s s s s s ",
"s s f h h h f s s s s s s s s s s s s f 9 f f j f f s s s s s s s s j f h g 8 s s s s s s f h s s s s f h h j w s s s s s s s s ",
"9 s s f f f k f s s s s 9 9 9 9 s f f f w h h h f g s s s s s s s f h f j w j x f s s s s f f s s s s f h f 9 s s s s s s s s f ",
"9 s s s s j g 9 s s s 9 8 8 8 8 s f h f h h h C f w w s s s s s s f h h f f f k g s s s s f f s s s s s s s s s s s s g 9 g f V ",
"f g w 9 9 9 9 s s s s s s s s 9 9 f f f f f x f f j s s s s s s s f h h f s 8 8 9 s f j h f f f s s s 9 9 9 9 9 s s h g k w h g ",
"h g g 9 s s s s s s s s s s s s s s h h h f f f k w 9 9 8 8 8 8 8 9 s f h h f f s s k g f f f s s 8 8 8 8 8 8 8 s f f f f h h h ",
"f f f 9 8 8 8 8 8 8 9 f h h f f s s f h j C s f g g s 9 8 8 8 9 9 s f f h h h k s s k C f f f f s 9 8 8 8 8 8 s s s s s f f f f ",
"s f w 9 9 9 8 9 9 9 s s f j h h f s s s s s f g w 9 s s s s s s s s f h f k C V s s 9 g f s f s s s s s 9 s f s s f k w j s s s ",
"j g 9 s s s s s s f f f f j j k C s s s s s s s s s s s s f 9 s s s f j h 9 9 w s s s s s 9 g s s s s f s s j g f h f h g s s f ",
"w s f f s s f h f f h f h f f f q 9 s s s s s s g 9 f w f j w f s s s g A 9 s s s s s s s 8 A j s s s C g f h g f h h x w f f f ",
"f f h h h s f h f w h h f k f 9 f s s s s s s g f w h f h f C w s s s s w s s s s 9 f f s w x f s s f f j f h f h h f w s s f f ",
"s f h k h f f h h 9 g j f f M J % * ; ; ; & p n f f f f f h f j j s s s s s s s s s f C x f h f s s s s h f f f s f j k 9 s s s ",
"s j j k h f f h j 9 9 F 6 ..0.i.u.u.u.y.u.u.u.i.6.{ 1 K v h f f 9 s s s d s s 9 k k h f x x h f s s s s f w 9 9 s s s s s s s s ",
"s j j f h w f h x u E 9.u.u.p.u.u.a.p.u.t.y.p.a.y.p.p.i.9./ $ d s 9 O { 5.:.: c S j h h h j h s 9 8 8 8 8 8 8 8 8 8 8 8 9 s s s ",
"s g j g j 9 s C L 6.a.a.u.y.p.u.u.p.p.y.y.t.p.u.t.y.y.y.t.p.u.,.2 $ >.y.y.u.a.<.& g h h h h f 9 8 8 8 8 8 8 8 8 8 8 8 8 s f s s ",
"s 9 9 w 8 s s e 9.a.a.a.p.t.p.p.p.a.p.y.p.a.u.y.t.y.y.y.u.p.p.y.u.u.y.y.y.p.a.u.u.Q f f h f s s s s s s 9 9 w f h f s f h h f f ",
"f s s s s s s s R u.a.a.u.a.p.a.p.u.t.t.t.t.u.y.t.t.t.y.u.a.a.u.a.p.y.p.u.a.s.p.u.i.^ d s s s s s s 8 8 8 w j h f f f h h j g A ",
"h f h f f f j g t 9.y.y.u.p.y.4.T o 2.t.y.y.y.u.t.t.t.p.p.u.u.p.t.u.y.u.u.a.a.a.u.u.y.E s s s s s 9 8 8 8 q w w j h f f f f C g ",
"j f h f h h g q 8 % t.p.u.y.t.)     Y t.y.t.r.u.y.u.y.p.y.t.p.a.p.y.u.u.u.u.a.a.a.s.p.i.= s f h j 9 8 8 8 8 8 w k h f 9 h w f j ",
"f j j 9 f h h k w 0 8.u.y.u.y.4.X . ( e.y.u.t.y.u.u.p.y.y.t.y.u.u.u.u.y.&.;.a.p.a.a.p.u.w.c h f V s 8 8 8 8 8 w w 9 8 8 f f 9 s ",
"s f k 8 8 C k c P ' y.y.t.y.u.p.y.r.u.r.y.a.a.p.u.p.u.u.t.y.p.u.u.u.u.p.2.@.y.u.p.a.a.p.u.5 h j A 9 s 7 7 7 7 8 8 9 s 9 j s s s ",
"f f s 9 8 8 y _ r.y.t.u.t.u.p.a.a.p.u.p.u.p.u.u.p.y.t.y.t.r.y.y.t.u.u.u.1.$.i.s.s.a.p.u.p.} k k w s 9 8 7 7 8 9 f f h h s s s f ",
"f f s s 9 8 r ,.t.u.t.y.y.p.y.u.u.u.p.y.y.a.t.t.t.t.t.p.t.y.y.t.u.u.y.1.@.1.a.a.u.y.p.a.a.q.g s s s s s s s s f f g h f f f f h ",
"g f s s 9 9 w < y.t.e.u.p.p.u.p.u.u.y.u.y.u.p.y.y.y.t.u.p.p.p.p.u.p.1.+.$.u.a.p.y.+.3.p.u.7.9 9 s s s g k s s s s V g f f C f g ",
"s s s s s k k n 9.y.a.p.u.a.y.p.p.p.t.t.u.u.t.y.t.y.y.p.t.u.p.u.y.u.r.@.1.u.y.t.t.$.*.p.p.9.s s 9 9 s f j k s s s s g f s 9 s 9 ",
"s s s s s f h h 1 p.p.y.u.u.p.a.a.u.y.t.u.u.t.y.t.y.y.t.y.p.u.y.t.p.y.@.;.u.u.u.y.%.%.p.a.X.s s 9 S k g f h f s s s s w w f s s ",
"h f s s s s f f n 8.t.y.u.p.u.p.p.p.u.y.y.y.i.a.i.i.t.t.t.p.p.u.u.t.=.@.r.t.y.t.e.+.1.y.a. .g s s x h h f f f s s s w g f f j j ",
"h f s s s s s s s $ y.y.p.p.u.y.u.u.u.u.u.j.l.v.b.z.k.g.u.u.u.u.r.#.@.3.u.u.t.1.$.#.r.u.u.7.c s s s f f f f s s s 9 w j f j f h ",
"f f f s s s s s s s ! p.p.a.p.a.u.p.u.u.g.v.c.v.v.v.v.v.g.a.p.a.r.@.1.p.p.a.r.+.$.e.y.y.2.e.= 9 8 w f f h h h s s s k s k x f f ",
"f f f s 9 9 9 9 9 8 y o.a.u.u.u.p.p.p.a.v.v.v.x.v.v.v.v.h.p.p.a.u.$.1.p.p.a.u.%.;.u.y.y.%.=.X.f C k f g h f h s s s 9 f f h h f ",
"f s s s 9 9 8 8 9 9 s D 6.y.t.u.u.p.p.u.l.v.v.v.v.v.v.z.d.u.u.r.&.#.4.s.a.a.r.@.-.a.p.u.%.=.0.b s 9 q j f f f s s s g j j f f 9 ",
"s s s s s f s f f f s s @ 8.u.u.u.a.u.p.f.v.v.v.v.v.v.k.u.u.2.@.#.3.a.a.y.3.%.@.r.t.t.2.+.1.u.= s w C f g C f s s s s j f f f s ",
"s s s s f h s h f f f f s @ 9.t.t.u.a.p.y.h.v.v.v.b.l.a.y.u.r.+.1.u.u.u.=.@.$.r.y.y.%.@.%.u.p.^ s 9 8 8 9 s s f f f f f s f s s ",
"s s h f h f f h h j f h f s K 7.p.p.u.a.a.a.l.v.v.l.d.u.u.y.3.+.3.t.u.u.1.+.r.y.t.t.%.@.e.t.t...8 8 8 8 8 8 9 g g f f f s s s s ",
"s f x f f s f x C j f x j j k J o.p.u.p.a.a.d.h.g.a.p.u.t.*.@.$.u.a.u.u.1.+.y.p.y.p.=.@.t.t.t.8.0 8 8 8 8 9 s C Z f f f s s s s ",
"s s s x f s k f f s s j x f s s b ] y.u.u.p.y.u.y.y.t.u.r.+.$.r.u.u.y.2.$.&.u.u.a.r.$.;.y.t.y.u.& p i p i b s s f s f f s s s s ",
"s h j s s s s s s s s s s s s s s c > 8.u.u.y.y.u.t.t.y.t.+.*.y.y.y.;.@.%.y.a.t.=.@.$.r.t.p.u.y.y.t.t.t.y.i.9.O.R $ m s s s f C ",
"h g 8 9 s s s s s s s s s s s s f h f G o.t.y.y.y.u.u.u.;.+.e.p.p.u.3.@.r.u.y.y.$.$.t.u.y.u.p.y.y.y.3.1.3.r.y.p.t.t.>.v s s j f ",
"j w x C k s s s s s s s s s s s s s s f R y.t.t.y.t.e.@.@.;.p.y.y.u.*.@.y.y.u.y.=.%.y.r.u.u.u.u.t.y.%.@.@.@.$.1.u.p.:.s s f h f ",
"f f w w 8 s s s s s s s s f 9 s f f f C ' t.t.u.u.y.y.1.e.t.u.p.r.=.@.1.a.y.y.=.#.1.u.t.t.p.p.p.y.t.y.y.3.1.*.;.y.y.& s s f h h ",
"f f w s s s s s s s C f s h k f h f j g ~ y.u.a.p.u.u.y.u.y.y.u.3.%.1.y.u.u.1.@.=.u.u.y.y.u.u.y.a.4.r.a.p.y.p.y.p...9 9 9 s f f ",
"h h h x s s s s s s h k f h g h h f g 9 $ t.y.u.p.u.p.y.p.u.0.u.u.y.u.y.p.p.y.r.y.y.u.i.u.p.u.t.t.%.@.2.u.u.u.t.8.+ 8 8 9 s f f ",
"f g C V s s s s s s s h f h f f f j V 9 s - 8.t.t.y.u.u.<.U n # = X.p.y.u.p.p.p.p.} * D ~ y.y.y.t.e.*.@.%.r.u.t.: s s s s s f h ",
"x s 9 w s s s s s s s f f s f s s f s s s s v - ~ } ~ 4 m j h 9 j 3 y.y.a.a.p.p.>.v s s @ y.y.=.=.t.u.r.&.*.u.X.s f w s s s f C ",
"A f s 9 8 8 8 8 8 9 s s s s s s f s f f f s s s s s 9 j j f h 9 f c X.t.t.y.u.q.G C j s f | y.2.+.3.t.a.u.y.6.H f f g w s s s f ",
"9 s 9 8 8 8 8 8 8 s s s s f f h f f h h h h f s s s s g w k w s f V r , ..` 2 N j h h f f I i.u.&.$.t.u.u.y.$ f f h j f f f s s ",
"s s s 9 9 9 9 9 9 9 9 s g j h f f f h h j g S s s s f 9 9 9 s s s 9 s s s s s s f j h f f h ~ a.r.@.;.t.y.R s f f h h g f s s s ",
"s s s s s s s 9 8 8 8 8 f f g j h f f f f A g f s f f f h s f h j f s s s s s f x j h f f f D 9.a.3.1.t.{ s s f f 9 s s s s s s ",
"s s s s s f f s s s s s s s w C h f s h 9 f x s f f f f f f h h k f s 8 8 8 8 9 s s s s s s f = u.p.t.>.b 9 s h f 9 s f f f s s ",
"s f h h f f k A w s s s s 9 f h f s 9 f f 8 f s x A f h f f h h x f s s 9 9 9 8 w s 9 w 9 9 s s ~ i.t.a s j 9 f f 9 f h x w s s ",
"s f h h h h g f s s 9 8 9 s s s s s 9 f f s s s h f s j k s j f j x s s s s 9 V k s w x f C 9 s d W $ s s C j f f s h j g s s s ",
"f h h h h h x S w 8 8 8 8 9 s s s s 9 j s s s f s s s f f s f A g x g 9 s s f j j 9 f j f j g s s s s s h V x h h f h f h j k f ",
"h h C f f j V w s s 9 9 9 9 9 w f h h f s s f f f s s s s s s s w 8 f k w s j h j 9 h j f h f s s s s s s h h h h f f h h g s s ",
"h h f Z k 9 s s s s s s s 9 w g g h f f f f h f f s s s s s 9 9 g x f h j w f h h s h h k h f s s s s s s s s 9 9 9 s s s s s s ",
"h C 8 f f g 9 s s s s s s 8 8 8 g f f f g f g j w s s s s s s f 9 h k f h h 9 h h s f h h h s s s s s s s s s 9 8 8 9 s s s s s ",
"C g 9 s s 9 9 9 9 9 8 9 s 8 8 8 w w f 8 g 8 w w s s s s s s w w f f h h f h f f h s s f f s s s s s s s s s s s s s s s s s s s ",
"f 8 s s s 9 8 8 8 8 8 8 9 9 8 8 8 w 8 8 8 8 9 9 9 s s s s f f C j j f f f f s s s s s s s s s s s s s 9 9 9 9 s s 8 8 8 9 s s s ",
"s s s s s s s s 9 9 9 9 s s 9 8 8 8 8 8 8 9 s 9 9 9 s s s f s f h h j f s s s s s s s s 9 A 9 s s s 9 8 8 8 9 s s 9 9 s s j g s ",
"s s s s s s s s s s 9 8 9 s s s s 9 9 s s s s s s s s s s x s s f h h h f s s s s s f g w x w f 9 s s s s s s s g w f k g j w g ",
"s s s s s s s s f j f s s f f f s f C s s s s s s s s s f f s s s s s s s s s s s s A V V h f j 9 s s s s s s f f k k g h f j w ",
"A w s f f s f x j x A s f A A f f C h C f s s s s s s f f g f f j s s s s s s s s f j Z A h f h g s x S B s s j f f f f f h h x "
};
