/* XPM */
static char *_52a7560083f4240ed199870807f135fLCiIBpbpz95L6jan[] = {
/* columns rows colors chars-per-pixel */
"64 64 192 2 ",
"   c None",
".  c #000B23",
"X  c #000E28",
"o  c #00122A",
"O  c #044269",
"+  c #1F5579",
"@  c #185F7F",
"#  c #2C6C88",
"$  c #2C7393",
"%  c #2D8ABE",
"&  c #268ABE",
"*  c #3485BD",
"=  c #348CBE",
"-  c #4489A8",
";  c #4895BF",
":  c #77A6BA",
">  c #7AAEBF",
",  c #2C86C3",
"<  c #2D8BC4",
"1  c #2F8DC9",
"2  c #3187C4",
"3  c #348CC3",
"4  c #3A8CC4",
"5  c #348CC9",
"6  c #3C8DCB",
"7  c #3492C5",
"8  c #3B93C6",
"9  c #3393CB",
"0  c #3B94CC",
"q  c #3C9ACC",
"w  c #3B9AC9",
"e  c #3F8ED0",
"r  c #3C95D3",
"t  c #3D9BD2",
"y  c #3998D5",
"u  c #4395CE",
"i  c #429ACC",
"p  c #4E9DC8",
"a  c #4896C6",
"s  c #509DC7",
"d  c #519BCA",
"f  c #439CD3",
"g  c #499DD4",
"h  c #449ED9",
"j  c #4C9EDA",
"k  c #4795D5",
"l  c #5FA6CC",
"z  c #5CABCD",
"x  c #5CA1C2",
"c  c #4CA4D6",
"v  c #4EABD5",
"b  c #44A3DC",
"n  c #4BA3DC",
"m  c #4CABDD",
"M  c #50A8D0",
"N  c #5BACD4",
"B  c #53A5DC",
"V  c #54ACDD",
"C  c #5BADDB",
"Z  c #58A5D2",
"A  c #4FB0DD",
"S  c #5EB0D6",
"D  c #55B1DE",
"F  c #5CB2DD",
"G  c #6EABC3",
"H  c #64ABCD",
"J  c #6AAECE",
"K  c #73ACCC",
"L  c #7CADCB",
"P  c #76A7C2",
"I  c #72B1C9",
"U  c #7AB3CD",
"Y  c #7CB9CE",
"T  c #63ACD4",
"R  c #6CAED4",
"E  c #62ADDC",
"W  c #6AAFDA",
"Q  c #74AFD1",
"!  c #78AFD2",
"~  c #62B1D0",
"^  c #6BB2D4",
"/  c #64B3DC",
"(  c #6AB4DD",
")  c #61B9DF",
"_  c #6CB8D8",
"`  c #74B2D3",
"'  c #7CB5D5",
"]  c #72B2D9",
"[  c #7AB6DB",
"{  c #75BADC",
"}  c #7DB9DA",
"|  c #7EBBD0",
" . c #4CA5E3",
".. c #4DADE3",
"X. c #4DACEA",
"o. c #52A6E2",
"O. c #53ADE3",
"+. c #5AAEE3",
"@. c #53ADE9",
"#. c #5CAEEB",
"$. c #4DB2E5",
"%. c #4EB3EC",
"&. c #4FB9ED",
"*. c #54B3E5",
"=. c #5AB4E4",
"-. c #57B8E5",
";. c #5CB9E5",
":. c #54B4EA",
">. c #5AB5EA",
",. c #56B9EC",
"<. c #5AB9EB",
"1. c #57AEF1",
"2. c #4EB5F0",
"3. c #55B5F2",
"4. c #5BB6F1",
"5. c #56BAF1",
"6. c #5CBAF2",
"7. c #5ABDF8",
"8. c #63AFEA",
"9. c #63B4E2",
"0. c #6AB4E2",
"q. c #63B9E5",
"w. c #6BBCE5",
"e. c #62B3E9",
"r. c #61B8EB",
"t. c #73BDE2",
"y. c #72BFE9",
"u. c #60BBF0",
"i. c #64B2F0",
"p. c #78C2DD",
"a. c #6AC2ED",
"s. c #73C5EE",
"d. c #7DC8EF",
"f. c #7CC0E3",
"g. c #6FC1F0",
"h. c #6BCEF8",
"j. c #7CCBF4",
"k. c #73CFF8",
"l. c #7BCEF8",
"z. c #75C7F3",
"x. c #88ABBF",
"c. c #85B4CB",
"v. c #8BB4CB",
"b. c #80B8CF",
"n. c #84B9D3",
"m. c #84BCDD",
"M. c #88BAD3",
"N. c #91BADC",
"B. c #88C2D7",
"V. c #86C1DD",
"C. c #88C1DE",
"Z. c #91C0D2",
"A. c #94C3DD",
"S. c #9EC6DA",
"D. c #A8C5D7",
"F. c #A6CDDE",
"G. c #8EC6E2",
"H. c #8CC7E9",
"J. c #82C9EA",
"K. c #8ACBEC",
"L. c #92C5E4",
"P. c #91C9E5",
"I. c #93CEEC",
"U. c #9ACCEA",
"Y. c #94D2EE",
"T. c #9CD8ED",
"R. c #84CEF4",
"E. c #8BCCF3",
"W. c #81CFF9",
"Q. c #86D0F7",
"!. c #8DD3F5",
"~. c #8CD5FA",
"^. c #8FDBFE",
"/. c #93D3F4",
"(. c #92D5FB",
"). c #94D9FC",
"_. c #9CDCFF",
"`. c #98D6F3",
"'. c #A5CCE4",
"]. c #AFD6E5",
"[. c #AFD0EB",
"{. c #B5D0E4",
"}. c #A2D5F4",
"|. c #AFDEF7",
" X c #AEDAF8",
".X c #A3DBF0",
"XX c #92E0FF",
"oX c #9EECFF",
"OX c #ABE0F9",
"+X c #B4E5FF",
"@X c #ADF4FF",
"#X c #CAFCFF",
/* pixels */
"                                                                                                                                ",
"                                                                                                                                ",
"                                                                                                                                ",
"                                                                                                                                ",
"                                                                                                                                ",
"                                                                                                                                ",
"                                                                                                                                ",
"                                                                                                                                ",
"                                                                                                                                ",
"                                                                                                                                ",
"                                                                                                                                ",
"                                                                                                                                ",
"                                                                                                                                ",
"                                                                                                                                ",
"                                                                                                                                ",
"                                                  D.x.v.c.c.M.n.| Y b.M.c.c.Z.F.                                                ",
"                                                  ' J ^ T N q.F ) / / / ( ) S ^ A.                                              ",
"                                            |.`.K.N C =.*.:.,.,.*.=.>.e.=.*.*.=.^ '.                                            ",
"                                    }.m.` R / / 9.=.>.>.>.4.@.:.,.*.=.>.>.>.<.=./ `                                             ",
"                              U.{ ( F C F =.=.*.:.4.:.:.@.:.h q O.>.*.=.>.*.*.>.=./ L.                                          ",
"                          V.R / =.=.*.:.,.,.,.,.:.:.@.,.:.:.n 3 0 :.,.*.=.q q O.*.=.W                                           ",
"                      m.T ) 9.c *.*.*.:.:.:.:.,.3.:.:.6.>.>.>.c % *.,.:.=.q % q :.<.9.E.                                        ",
"                  L.T +.>.>.:.,.=.=.=.=.>.>.:.*.:.:.*.*.*.*.>.m < *.*.>.<.m q %  .,.>.E H.                                      ",
"                ` E =.:.:.:.:.$.=.V V D =.>.*.*.*.>.*.*.<.*.O.f % o.>.:.:.*...% h @.>.>.s '                                     ",
"              E >.:.,.*.*.=.$.:.*.*.*.*.*.:.:.:.*.:.,.@.:.6.o.3 3 V <.:.,.:.m % j @.:. .= ; ' [.                      +XP.U L  X",
"          U w.>.3.X.:.>.=.<.*.*.$.*.*.:.:.:.:.:.*.:.:.:.:.,.@.h * u @.:.:.,.n 3 g +.4.X.0 8 E ' '.                }.] T E T R _.",
"        ` / :.%.3.3.>.=...*.V >.:.:.:.:.:.:.:.:.:.*.*.:.>.>.>.+.g 4 @.,.@.@.4 * +.=.,.:.h , n C ^ .X          T._ F +.8.8.e.C k.",
"      ` E >.7.X.:.>.=.V <.,.O.O.:.:.:.,.,.:.:.*.*.*.*.=.*.*.=.>.B * ..:.,.+.u 4 c +.>.4.b < X.:.v T +X      ' ~ v m  .r e O.,.h.",
"    V.F =.@.,.:.F E ( C *.$.6.=.*.:.:.*.>.*.*.*.=.*.*.*.*.*.*.V u * *.*.-.>.+.i 3 >.=.o.9 5 X.3.>.=.9.).E.l T Z i 5 1 9 f *.D a.",
"  ].H ;.<.@.:.-.) x + O i :.m *.>.>.>.=.=.=.*.=.=.*.*.*.*.*.*.m 4 8 <.*.*.:.r.q 3 >.O.n 3 2 b 3.O.4.O.;.F ;.=.* 4 0 b ..*.=.F j.",
"  { ;.*.=.e.*.*.N # . . @ M r.*.>.*.*.*.*.*.*.*.:.:.:.,.:.,.:.@.0 3 V =.;.,.*.0 0 O.=.;.v 7 8 +.,.*.,.*.V =.V c V :.,.-.*.;.C j.",
"^.w.*.<.C C =.*.S - o X $ ) V >.:.*.*.*.*.*.*.*.*.O.*.:.:.3.3.3.@.5 i q.;.-.q 1 b =.=.D ;.w 8 +.:.:.:.,.*.=.>.+.>.<.:.*.;.F / ^.",
"s.F q.D F F D *.=.N s p V ,.:.*.*.*.:.,.*.*.=.D =.=.=.=.>.:.5.,.4.5 i >.;.*.9 & b *.*.F ;.8 8 O.:.,.*.*.;.F F =.q h n j a E ( XX",
"  { l ( C r.<.*.*.=.=.=.*.:.:.:.:.:.:.*.V V =.9.w.s.l.z.u.O.:.<. .5 g =.;.>.b 9 9 ..;.D c = i >.,.:.*.=.*.=.=.m 5 5 6 6 4 d T oX",
"      [ 9.@.3.%.:.>.r.q.;.*.:.%.:.:.:.=.C 9.y.j.R.!.^.~.j.F F =.4 3 V =.+.=.>.n 2 O.>.=.i 2 r 1.@.:.>.,.*.:.3.X.X. .n +.C F / @X",
"        (.#.X.3.:.*.;.=.F *.:.$.*.:.*.=.q.s.Q.).)././.!.R.0.F C 8 3 B =.+.=.#.j 5 #.>.>.n r y @.>.>.V =.:.%.2.3.@.4.>.>.=.F T @X",
"          0.o.6.3.:.*.*.=.=.,.*.:.:.*.=.g.W.!././.Y./.(.R.) =.>.O.7 8 =.>.r.o.6 6 4.:.>.,.b 9 X.*.=.F =.=.5.3.t 5 b X.,.>.E Q #X",
"        ! 0.r...:.:.>.=.=.=.>.:.:.:.O.=.z.~.!./.I.I./.(.R.9.=.>.:.7 7 *.>.>.n 6 6 >.:.*.:.t 1 ..<.F f.E.( C >.n 3 9 9 b ..C !   ",
"        H N =.$.*.*.-.;.=.=.:.,.*.=.V 9.j.(./.Y.Y.I./.~.W.>.*.:.b 7 q :.:.*.o.f 4 o.>.=.A 7 q V F {       N.R +.=.m 9 9 t C }   ",
"      > H F ;.m *.-.*.=.>.>.:.:.*.;.F / d.!.Y.Y.Y.Y./.~.j.>.:.,.9 , t %.,.:.6.c * g =.*.A q V 9.T             [ W q.*.m n 9.C.  ",
"        I z F *.*.$.:.:.:.:.,.:.*.;.;.C ( J./.Y.Y.Y.`.!.w.q.*.,.o.6 , 3.,.:.>.c 3 n :.*.:.>.=./ K               S.U S ;.D T '.  ",
"          B.J F ;.*.%.&.:.:.:.<.:.-.,.;.F / t.J.!.!.^.R.) F O.:.i.k 2 @.:.@.O.8 4 m <.:.%.,.<./ L                   T.p.H G {.  ",
"              n.l =.<.3.3.5.,.*.%.%.2.5.-.=.F ) w.w.s.q.F *.*.:.+.u 5 :.6.<.+.a c O.-.&.%.:.,.E G.                              ",
"                U.[ Z C >.>.*.:.3.2.%.%.:.5.<.=.=.F =.V *.*.,.*.B 6 r @.:.=.0.T / F D *.<.*.O.(                                 ",
"                      m.R ( 9.O.*.*.:.:.:.:.:.:.u.>.=.*.:...%.:.q 8 m :.D N R ` Y.K.^ z F N W P.                                ",
"                          U.} ] ^ T N / 9.=.=.>.O.O.O.*.<...%.:.>.*.,.*.F J.OX        U U C.                                    ",
"                                    A.n.' R T T 0.q.C +.>.=.:.:.*.*.*.F t.                                                      ",
"                                                  _.] H T / / F / / / R G.                                                      ",
"                                                    S.: P G I I K P P v.                                                        ",
"                                                                                                                                ",
"                                                                                                                                ",
"                                                                                                                                ",
"                                                                                                                                ",
"                                                                                                                                ",
"                                                                                                                                ",
"                                                                                                                                ",
"                                                                                                                                ",
"                                                                                                                                ",
"                                                                                                                                ",
"                                                                                                                                ",
"                                                                                                                                ",
"                                                                                                                                ",
"                                                                                                                                ",
"                                                                                                                                "
};
