/* XPM */
static char *collect_xpm[] = {
"8 8 2 1",
". c #f1c40f",
"# c #f39c12",
"........",
"....#...",
"...###..",
"..#####.",
"...###..",
"....#...",
"........",
"........"};