/* XPM */
static char *caa00ac70e4e47b5bd4e556c3eff78c9cTPsasMZ0rAmDzCg[] = {
/* columns rows colors chars-per-pixel */
"64 64 212 2 ",
"   c None",
".  c #332F29",
"X  c #3A342B",
"o  c #363533",
"O  c #383735",
"+  c #3D3A34",
"@  c #3D3D3B",
"#  c #423B2D",
"$  c #4A3E2E",
"%  c #433D34",
"&  c #423D3B",
"*  c #463B39",
"=  c #49422E",
"-  c #4B4534",
";  c #43423D",
":  c #4B443B",
">  c #4D4A3D",
",  c #4F4836",
"<  c #5C4B34",
"1  c #51443C",
"2  c #544C3D",
"3  c #5B4D3D",
"4  c #544934",
"5  c #5D533A",
"6  c #594928",
"7  c #634C2C",
"8  c #724E2E",
"9  c #6F552E",
"0  c #644D34",
"q  c #604F3B",
"w  c #6B5435",
"e  c #64543A",
"r  c #665537",
"t  c #765635",
"y  c #454442",
"u  c #4A4542",
"i  c #4C4946",
"p  c #4C4C4B",
"a  c #534C43",
"s  c #5D4E42",
"d  c #534C49",
"f  c #5A4C49",
"g  c #4D524E",
"h  c #5C5444",
"j  c #52514D",
"k  c #5B544B",
"l  c #59594F",
"z  c #5F5A47",
"x  c #5E4F52",
"c  c #4E5251",
"v  c #545453",
"b  c #5A5654",
"n  c #565857",
"m  c #5A5957",
"M  c #5C5C5B",
"N  c #57575A",
"B  c #604F45",
"V  c #625443",
"C  c #6C5E45",
"Z  c #63554A",
"A  c #685949",
"S  c #745C4D",
"D  c #765E46",
"F  c #645D53",
"G  c #625E5B",
"H  c #6B5D50",
"J  c #705D51",
"K  c #5D625C",
"L  c #7A6549",
"P  c #7A684B",
"I  c #62615D",
"U  c #6C665E",
"Y  c #686351",
"T  c #746656",
"R  c #7D6D54",
"E  c #796A59",
"W  c #756959",
"Q  c #7E725E",
"!  c #5D5C61",
"~  c #5F6161",
"^  c #646463",
"/  c #696664",
"(  c #666966",
")  c #6B6B65",
"_  c #6B6769",
"`  c #6D6D6B",
"'  c #666668",
"]  c #746C64",
"[  c #7A6F65",
"{  c #716E6C",
"}  c #786C6E",
"|  c #6D706D",
" . c #747165",
".. c #7C7366",
"X. c #72716D",
"o. c #7A746B",
"O. c #7E786C",
"+. c #6D6E71",
"@. c #726F73",
"#. c #796F70",
"$. c #6D7171",
"%. c #737372",
"&. c #797573",
"*. c #767875",
"=. c #7B7974",
"-. c #767779",
";. c #7A767A",
":. c #7B7A7A",
">. c #727878",
",. c #805E2E",
"<. c #866439",
"1. c #996B36",
"2. c #956C3A",
"3. c #896745",
"4. c #946A42",
"5. c #80724B",
"6. c #92724B",
"7. c #836C56",
"8. c #916D55",
"9. c #8A7253",
"0. c #84745B",
"q. c #8D795C",
"w. c #8A7858",
"e. c #977A54",
"r. c #9C7D55",
"t. c #937A5B",
"y. c #9A7956",
"u. c #A47D4E",
"i. c #A57847",
"p. c #B27B42",
"a. c #AD7F54",
"s. c #A17E5A",
"d. c #A27F57",
"f. c #836F64",
"g. c #847564",
"h. c #8C7B63",
"j. c #83766D",
"k. c #847A6B",
"l. c #897A69",
"z. c #867966",
"x. c #947E65",
"c. c #9B7F6A",
"v. c #827C74",
"b. c #817672",
"n. c #9F814D",
"m. c #998358",
"M. c #B9854A",
"N. c #A4845F",
"B. c #AE855A",
"V. c #AC885A",
"C. c #BC8853",
"Z. c #A98249",
"A. c #8D806F",
"S. c #8E8161",
"D. c #9A8A6F",
"F. c #96846C",
"G. c #858076",
"H. c #898378",
"J. c #9B8A78",
"K. c #A08462",
"L. c #A38A6B",
"P. c #A88C67",
"I. c #BE8E62",
"U. c #B18C66",
"Y. c #AE926A",
"T. c #BC9668",
"R. c #CA8F4D",
"E. c #C28E54",
"W. c #C68F57",
"Q. c #C3945A",
"!. c #CC9655",
"~. c #DB9C5A",
"^. c #D59A54",
"/. c #DCA04A",
"(. c #DCA45A",
"). c #E1A35F",
"_. c #E7A959",
"`. c #E6A54B",
"'. c #C39765",
"]. c #D1A065",
"[. c #7F7F82",
"{. c #7F8383",
"}. c #838382",
"|. c #898989",
" X c #878886",
".X c #948E8B",
"XX c #90908E",
"oX c #949493",
"OX c #999997",
"+X c #9B9C9C",
"@X c #A4978A",
"#X c #97A199",
"$X c #A0A09E",
"%X c #A4A4A3",
"&X c #A9AAA7",
"*X c #ACACAB",
"=X c #B1AEAE",
"-X c #BCBCBB",
";X c #B5B5B3",
":X c #A6B1A9",
">X c #D3C8BD",
",X c #CECDC2",
"<X c gray79",
"1X c gray76",
"2X c #D0CBC2",
"3X c #D4D4D4",
"4X c #DCDCD6",
"5X c #E7E7E7",
"6X c #FFF5ED",
"7X c #FDFFF6",
"8X c #FFFDFD",
"9X c #FFF6FC",
/* pixels */
"                                                                                                                                ",
"                                                                                                                                ",
"                                                                                                                                ",
"                                                                                                                                ",
"                                                                                                                                ",
"                                                                                                                                ",
"                                                                                                                                ",
"                                                                                                                                ",
"                                                                                                                                ",
"                                                                                                                                ",
"                                                                                                                                ",
"                                                                                                                                ",
"                                                                                                                                ",
"                                                                                                                                ",
"                                                                                                                                ",
"                                                                                                                                ",
"                                                                                                                                ",
"                                                                                                                                ",
"                                                                                                                                ",
"                                                                                                                                ",
"                                                                                                                                ",
"                                                                                                                                ",
"                                                                                                                                ",
"                                                                      }.y p _ M }.                                              ",
"                                                                  |.^ M ' ` %.` %.M                                             ",
"                                                          |.+X` ( _ ^ ^ ` %.` %.` %.M                                           ",
"                                                      _ %.%.%.%.%.M ^ X.` ` %.` %.' X.:.                                        ",
"                                                    _ %.` ` %._ _ ( _ %.%.` _ %.X.%.` I oX                                      ",
"                                                  M ` ^ %.%._ %.` %.%.` ` %.X.` ` %.X._ ` ;                                     ",
"                                                M v M %.` :.%.` ' m n M n ` :.X.%.' %.%.I ` _                                   ",
"                                              n v ` $.%.%.` ^ ^ ^ ` ` ` ` ^ I ` ` *._ ` %.( ` %.                                ",
"                                            p M | $.+.%.` M ' ` { ` %.%.` ` ` n m M ` X.X.%.X.` `                               ",
"                                        H.y ^ ` ` >.$.+.~ %.` X.{ %.{ X.%.` ` X.%.` %.%./ G X.) ` &                             ",
"                                      v u / X.X.%.$.$.^ ` { o.{ &.&.X.{ _ ` %.X.` %.' ` &.%.j G n %.` _                         ",
"                                    &.v %.X.( %.` X.X.) { ] o.b./ =.X.` %.X._ ` %.%.X.` X.` j ^ %.( %.` X.                      ",
"                                  %._ M _ ` X.`  .o.] [ [ j.j.j.G X.{ { %._ M n ^ ` *.| X._ m X.X.` %.X.` %.                    ",
"                                ) %.b ` >.| X. . ...Q E z.l.A.k.] ^ ` &.` ` -._ ' M ! %.M ` %.` ` ` %.%._ X.                    ",
"                                %.^ c $.| X.)  .Q 0.L 0.x.F.A...o.^ G ` ` ` ;.%.+.%.n v ` %.@.%.%.%._ ` %._ `                   ",
"                              M ` n -.+.( =.k.h.x.t.3.K.L.F.E k U ) b G o.X.` @.%.+.%.M %.` %._ _ X.%.M n n M %.                ",
"                              k &.b { o.o.Q q.N.u.B.I.'.U.w < - X X . % F ]  . . .| X.m ( %.` X.X.` %.%._ %.^ M %.              ",
"                            =. .T Q h.h.9.r.u.E.R.(.).!.1.,.9 r 5 z h - - - o.o.)  .o.l  .) o.) { X.X.` X.%.` ^ M               ",
"                            G.G.E D.D.L.N.T.].^._._._.^.E.V.m.w.R Y z A z , Y o.=.X. .l o. .) I I ^ %.{ X.X.X.{ %.I             ",
"                          X.v. .T g.7.t.r.V.Q.W.).~.!.p.i.3.L C V A s z h a a ) ) X. .m ` ` X.` I M { X.X. .%.%.X.` '           ",
"                           .o.U F F l.0.9.s.i.'.C.C.p.<.t 0 < V s Z s 1 # : X * b G b y M _ %.` { I I X.X. .X._ %.` %.^         ",
"                        I X.) b j  .W Q h.t.P.6.<.<.9 7 < 3 2 h s 1 1 1 * a u u & _ ;.@.%.@.` M %.` m X.{ { X.' ` ` %.%.        ",
"                    ^ %.` ( *.p |  .o.W l.D.0.r e e = - - a a k Z 3 A B 1 1 1 u d o.} ` @.&.{ b ` { M { ` X.X.` I %.` ` v       ",
"                  ( n M ^ ` | m %.` o.[ [ H 3 2 : ; ; ; ; u i a < e L C V 5 2 - 2 o.O.o.] X. .) ^ ` ( ^ X.X.{ X.{ m X.` _       ",
"                ` ` %.( ~ n ` v ` I G o.v.F a : y @ y y i y y % , 5 C R w.P r 6 0 q.h.x.g.0.Q ..U ) &.G %.%.) %.` M %.%.^       ",
"              _ ` %.%.` ` _ n i v &.X.=.X.G u ; y @ y y @ y o y u > - 5 5.m.n.2.2.a.I.a.e.e.m.S.l.v.m F %.%.` >.$._ M %._ *X    ",
"            ^ %.%.` ` %.%.%.p M ` X.%.{ :.v y O @ ; y @ @ y @ ; y ; - < w <.Z.!.R.).~.E.'.T.K.F.l.k.] k o.) X.` %.` N -.%.+X    ",
"            n _ _ %.+.` _ _ n %.%.%.%.{ X.m y o o i y @ y y @ + ; + : s 0 8 1.M._.`._.).Q.U.c.f.o...o.k X.X.*.` ` %.M ` _ %X    ",
"          oX%.%.%.` %.n %.v %.` { { %.%.M y & u . ; y O y y @ y > % 1 Z S 8.B.E.^./._.(.M.d.x.J ..] [ I U ) ` %.%.$.n %.%.+X    ",
"          ^ ` %.%.' v %.M ' ` %.` %.` p M X.X.y & @ y O y y O i 1 1 Z J S 7.6.4.i.C.Q.'.'.V.e.L g.o.[ U I X.` %.%.` n %.%.&X    ",
"          M ` ` ` M _ %.n ` %.%.X._ M ' X.%.%.^ y O ; @ y p @ u f 1 k V 3 q 0 w w y.s.r.N.Y.Y.w.g.F k F ] { ` X.m n i v v *X    ",
"        +X%.%.%.^ ' %.%.v %.` %.%.%.j ` ( ` X.` o . @ @ u ' ` ` } x u + X = # , $ E E A 0 D w.R A.>X                    3X      ",
"        -XOX}.v y y p n v _ ` ` ` %.v ( ' ( XX$X*X*X=X*X&X4X8X8X8X9X8X8X7X7X4X,X,X,X2X6X  @XJ.                          *X      ",
"      *X5X                -X&X%X+X%X&X%XOXOX&X                                        .X.X                          oX` ' -X    ",
"  3Xv %.v :.*X                                                                   Xb G %X                          oX^ ` ~ 3X    ",
"<Xv _ ` :.` ` %.*X+X+X+X:.|.                                                                =XM d k I         %.M v X.` | :.    ",
"n %.%.%.^ %.` v ' %.%.%.%.%.:.                                                        [.:./ G &.X. .{ M     / { %.m %.%.( `  X  ",
"p M _ %.:.` M i v ' |.:.M n OX*X  +X  &X+X                                          K ( { ] } #.{ ) &.) _ _ ` ` %.v X.X.*.` n   ",
"5X<X-X%X%X1X                                                                        ` ( X.&.} ] %.X.@.` %.m ` &.^ I ` ` ` ` *.+X",
"                                                                                    +X{.M g ( %._ M v ^ ^ @ I _ %.j X.m v M M oX",
"                                                                                            :X#X%X          -X%X&X;X%X          "
};
