/* XPM */
static char *exit_closed_xpm[] = {
"8 8 2 1",
". c #16a085",
"# c #0e6655",
"########",
"#......#",
"#.####.#",
"#.####.#",
"#.####.#",
"#......#",
"########",
"########"};