/* XPM */
static char *exit_open_xpm[] = {
"8 8 2 1",
". c #27ae60",
"# c #2ecc71",
"########",
"#......#",
"#......#",
"#......#",
"#......#",
"#......#",
"########",
"########"};