/* XPM */
static char *e41f646109254bd09b525d7a6c0e304f1LUSrCMLIixzKbYv[] = {
/* columns rows colors chars-per-pixel */
"64 64 239 2 ",
"   c None",
".  c #3D3D3A",
"X  c #253F24",
"o  c #134E0A",
"O  c #0D5B06",
"+  c #095908",
"@  c #155B02",
"#  c #15560A",
"$  c #1E4E1F",
"%  c #1D5B16",
"&  c #155A15",
"*  c #255E0B",
"=  c #235B15",
"-  c #255518",
";  c #335C1C",
":  c #214E13",
">  c #0C6300",
",  c #076700",
"<  c #166004",
"1  c #196403",
"2  c #166906",
"3  c #1B6B05",
"4  c #16650B",
"5  c #1C640A",
"6  c #1C6B0B",
"7  c #17680C",
"8  c #1E720D",
"9  c #117503",
"0  c #1D6414",
"q  c #1C6C13",
"w  c #1A641B",
"e  c #1F7414",
"r  c #0B7300",
"t  c #236A03",
"y  c #226B0B",
"u  c #2D690D",
"i  c #23740C",
"p  c #28780C",
"a  c #36750D",
"s  c #226312",
"d  c #236B13",
"f  c #2B6D14",
"g  c #28671A",
"h  c #366917",
"j  c #247514",
"k  c #2B7414",
"l  c #247915",
"z  c #23741A",
"x  c #2C751A",
"c  c #267D1B",
"v  c #297B1A",
"b  c #2B7C13",
"n  c #337614",
"m  c #37781B",
"M  c #326E0A",
"N  c #234E24",
"B  c #265323",
"V  c #235B24",
"C  c #2B5B23",
"Z  c #295A29",
"A  c #32572C",
"S  c #3C533B",
"D  c #3C593B",
"F  c #3B4733",
"G  c #2A6423",
"H  c #2B6A22",
"J  c #276826",
"K  c #3A652E",
"L  c #326C2C",
"P  c #386929",
"I  c #2B7322",
"U  c #2D7A27",
"Y  c #337C22",
"T  c #387527",
"R  c #3C6434",
"E  c #3A6C34",
"W  c #376839",
"Q  c #3C7B34",
"!  c #357936",
"~  c #4E741F",
"^  c #435C3D",
"/  c #485B34",
"(  c #4B5730",
")  c #426C2D",
"_  c #417824",
"`  c #5D772D",
"'  c #426D34",
"]  c #446639",
"[  c #42733B",
"{  c #457737",
"}  c #507E33",
"|  c #617B34",
" . c #3E6B44",
".. c #4C4C4A",
"X. c #474845",
"o. c #465B44",
"O. c #4C5C4A",
"+. c #4B5948",
"@. c #52534E",
"#. c #515C4E",
"$. c #545453",
"%. c #555E56",
"&. c #595A56",
"*. c #5A545B",
"=. c #5C5C5B",
"-. c #595856",
";. c #564E59",
":. c #635C5A",
">. c #456543",
",. c #4E6B4A",
"<. c #496947",
"1. c #5E6A47",
"2. c #4C7245",
"3. c #4D744B",
"4. c #4E7B4A",
"5. c #487943",
"6. c #527A4B",
"7. c #54774A",
"8. c #536354",
"9. c #5A6455",
"0. c #5B6B56",
"q. c #5B645B",
"w. c #5C6C5B",
"e. c #566858",
"r. c #5C7756",
"t. c #537C52",
"y. c #5C7C53",
"u. c #5C745C",
"i. c #5D7B5B",
"p. c #567458",
"a. c #4C6A50",
"s. c #61615E",
"d. c #686D59",
"f. c #63755E",
"g. c #607A5B",
"h. c #657359",
"j. c #726D56",
"k. c #5A5B60",
"l. c #645D64",
"z. c #5D6D63",
"x. c #5E7461",
"c. c #5E7A61",
"v. c #646463",
"b. c #696566",
"n. c #646D63",
"m. c #6B6B65",
"M. c #6A666B",
"N. c #6D6D6B",
"B. c #66696A",
"V. c #726D6D",
"C. c #776C67",
"Z. c #657364",
"A. c #6A7264",
"S. c #637B64",
"D. c #697A66",
"F. c #67716A",
"G. c #6C726B",
"H. c #6C7B6B",
"J. c #677A6A",
"K. c #71716E",
"L. c #73776A",
"P. c #6C6E73",
"I. c #736F73",
"U. c #6E7372",
"Y. c #6E7971",
"T. c #737372",
"R. c #7A7372",
"E. c #747A71",
"W. c #7B7B7A",
"Q. c #777579",
"!. c #897C69",
"~. c #807C7D",
"^. c #298519",
"/. c #36861A",
"(. c #2D8321",
"). c #368122",
"_. c #37852B",
"`. c #3A8631",
"'. c #428427",
"]. c #48833A",
"[. c #6D8B38",
"{. c #72A23F",
"}. c #3E8342",
"|. c #4A884B",
" X c #55834D",
".X c #57864C",
"XX c #598057",
"oX c #56934E",
"OX c #698A42",
"+X c #769643",
"@X c #66845C",
"#X c #6B8E51",
"$X c #678769",
"%X c #788476",
"&X c #719D79",
"*X c #7BA27C",
"=X c #67A86E",
"-X c #8C9B56",
";X c #8DA35A",
":X c #988977",
">X c #828974",
",X c #847F83",
"<X c #878885",
"1X c #8C988B",
"2X c #949494",
"3X c #9C9C9C",
"4X c #979A96",
"5X c #92928F",
"6X c #A19996",
"7X c #84A785",
"8X c #96B595",
"9X c #8FA594",
"0X c #A5A49F",
"qX c #9DA8A1",
"wX c #9CB7A3",
"eX c #A5A4A3",
"rX c #ABA9A6",
"tX c #ACACAC",
"yX c #A5A9A5",
"uX c #A8B7A6",
"iX c #B7B7B6",
"pX c #B1B4AB",
"aX c #B8C6B6",
"sX c #B9DBBB",
"dX c #AFDEA8",
"fX c #BCCCC4",
"gX c #C1C1C1",
"hX c #CBCBCA",
"jX c #C7CAC6",
"kX c #C9D8C7",
"lX c #D8D8D7",
"zX c #E0DEDA",
"xX c #DAE6D6",
"cX c #DAFAD8",
"vX c #E8E9E8",
"bX c #F4F3EE",
"nX c #FEFEFD",
"mX c #F6F6F6",
"MX c #F0ECE9",
/* pixels */
"                                                                                                                                ",
"                                                                                                                                ",
"                                                                                                                                ",
"                                                                                                                                ",
"                                                                                                                                ",
"                                                                                                                                ",
"                                                                                                                                ",
"                                                                                                                                ",
"                                                                                                                                ",
"                                                                                                                                ",
"                                                                                                                                ",
"                                                                                                                                ",
"                                                                                                                                ",
"                                                                                                                                ",
"                                                                                                                                ",
"                                                                                                                                ",
"                                                                                                                                ",
"                                                                                                                                ",
"                                                                                                                                ",
"                                                                                                                                ",
"                                                                                                                                ",
"                                                                                                                                ",
"                                                                                                                                ",
"                                                                      <XX...V.                                                  ",
"                                                              xXaX%Xv.s.=.V.R.V.K.                                              ",
"                                                        G.1X>Xw.Z.E.s.&.T.R.B.V.N.T.                                            ",
"                                                    F.n.D.S.0.D.Z.h.w.G.N.V.~.V.T.b.K.                                          ",
"                                                  4Xn.D.D.,.r.i.f.w.n.E.G.v.N.V.K.T.N.s.                                        ",
"                                                vX9.Z.o.i.,.7.@Xr.u.w.n.K.W.T.T.N.T.K.B.m.                                      ",
"                                          lX  kX9.O.S i.>.XX3.t.p.o.8.q.%.N.T.N.T.b.T.T.q.G.m.                                  ",
"                                          tXaX#.+.w.>.i.2.5.E 4.D p.D.Z.n.s.v.T.V.Q.B.N.T.B.G.T.                                ",
"                                        nX%XX.0.g.,.y.] .XC 5.5.A S.u.0.H.G.v.=.&.=.N.T.T.T.T.N.N.                              ",
"                                      vX,X. F.u.4.P 7.P ].# |.C 6.r.+.u.S.J.E.m.K.N.Q.Q.M.l.T.N.N..                             ",
"                                  vXT.*...$.q.$XW L { T Y d ! L 3.<.^ i.i.a.9.E.N.T.M.P.Q.Q.@.:.$.T.N.B.                        ",
"                                hX..W.$.T.N.S i.Z 5.`._.4 U 0 Q E B  X X2.R D.n.Y.Y.T.m.G.F.$.v.T.m.T.N.K.                      ",
"                                =.m.n.%.N.G.S 3.N |.`.`.O Y u OXA ' .X[ C 6.0.#.q.m.E.G.G.n.&.T.K.N.T.K.N.T.                    ",
"                              rXm.E.#.Z.R.m.^ W V }.U _.< _ ` -X( ) Q H K @Xf.A.:.:.&.G.9.A.R.C.N.N.T.T.N.K.                    ",
"                              <XK.m.+.Z.m.A.] B E Q U x d h [.+X| ' Q J 4.7.r.0.C.C.$.@.n.G.V.R.R.T.B.N.T.B.N.                  ",
"                              =.N.$.Z.S.r.y.7.C { Q Q d x t '.m P ].J L 6.6.<.i.L.V.U.=.T.N.K.m.B.K.T.=.=.-.=.T.                ",
"                            $.$.V.$.Z.u.t.4. X- h T } h m 1 j 6 5 x # L [ ] 3.i.S.F.U.k.M.T.G.K.K.N.T.T.B.T.v.=.T.              ",
"                          T.T.N.*.N.z.a.2.' .X= m ~ ;X` u n y y Y 5 g H = [ K @X,.D.G.-.N.B.K.K.N.T.N.K.N.T.N.v.-.              ",
"                          =.N.T.*.Q.z.D 2.K { @ k a [.~ h '.f 1 ).@ _ * I g { ] 7.g.d.m.R.K.K.@.v.m.T.T.N.T.N.N.T.s.            ",
"                          N.T.M.;.N.=.F 7.[ g z 8 i /.n u '.5 < j t ~ +Xm * ) ' 2.y.d.:X!.C.K.K.s.=.N.K.N.K.K.T.K.N.v.          ",
"                        W.N.T.v.*.=.G.f.S 7.H c l i p p 1 m @ 6 8 p a {.M n g = : ] ( !.:X!.m.G.N.v.s.K.N.K.N.B.T.N.T.v.        ",
"                        v.T.B.$.$.m.J.x.S y.G 0 x k t a 1 x < Y 2 1 n /.t m < 0 G [ / 1.>XL.A.&.T.N.&.K.N.N.K.v.N.N.T.T.        ",
"                    v.T.P.B.Q...N.E.Z.S.O.,.[ = x n t /.3 c 5 ).@ 6 i b p y 7 I o R <.h.L.A.K.&.N.N.=.N.N.N.T.N.=.T.N.N.        ",
"                  B.-.-.=.T.T.&.A.H.x.u.8.X N C g k 3 /.9 ^.2 k 5 ).v 6 x 5 z O T 6.r.H.G.N.V.b.v.m.m.s.K.K.K.K.N.&.T.N.v.      ",
"                T.N.T.B.v.-.B.&.G.#.w.Z.x.D A : s j 8 ^.r ^.2 d y x ).j 5 d 4 U %  Xi.J.F.T.N.T.v.=.K.$.T.T.B.K.N.=.T.T.v.      ",
"              B.N.T.T.N.N.N.$.X.@.n.A.Z.S. .B o s 1 3 /., (.q 5 k k l e 6 1 Y d s [ t.S.F.T.P.T.T.v.$.&.N.T.T.N.K.B.-.T.B.      ",
"            v.T.T.P.T.T.T.T...=.N.A.K.F.x.3.$ o d @ i ^.> c 7 d m 6 3 l 8 y '.g g E R ^ Z.G.P.P.T.T.B...K.B.N.K.T.B.&.T.K.      ",
"            -.B.B.T.P.B.B.B.-.N.K.K.K.n.H.>.W & # 5 3 ^.> c 7 6 l 8 3 k 2 m OXOXg : 1.d.0.%.F.N.N.N.W.$.N.K.W.N.N.T.=.N.m.      ",
"          2XT.T.T.P.T.-.T.$.T.N.K.m.K.K.%.D Z E s 0 2 ^.> (.7 e 6 c k < 6 f ` OX- - j.( F 9.m.$.N.N.K.s.m.N.m.N.K.K.$.T.T.      ",
"          v.N.T.T.v.$.T.=.v.N.T.R.V.N...q.x.i.B L # d 6 6 v 7 z q e z + Y @ h ; ; ; ] / d.9...=.T.N.K.B.-.K.T.N.K.N.$.T.T.      ",
"          =.N.N.N.=.B.T.-.N.T.T.V.R.$.U.F.Z.S.] C g 0 0 x d Y 0 I z q O I # I o G K R g.L.A.K.@.s.$.$.s.B.N.N.T.&.&.X.@.$.      ",
"        3XT.T.T.v.v.W.T.$.T.N.V.R.m.-.B.G.F.J.p.$ V % % H = Q % oXJ w + w & & % ! J Z ,.+.X.s.. v.lX                            ",
"        gX2X<X$.X.X...-.$.B.N.V.V.R.X.G.v.v.1X9XXXN 4.G  X'  X#XdXE |.! =X|.J =XW  .&XsXxX4X<XzX                                ",
"      tXvXnXnXnXnXnXmXlXhXiXyX0X6X0XrXeX4X3XyXqXwX<.8XD   8X7XcXcX>.$XW sX*Xt.*X7XsXaX%X<XMX                        2XN.v.      ",
"  lX$.T.$.W.tX                                    9X  $X          uX8Xc.uXaXkXkX%Xo.0.yXrXeX3XiX                  5Xv.N.s.      ",
"hX$.B.N.W.N.N.T.tX3X3X3XW.<X                      fX                    aX0XrXrXiXjXbX    nXtX=...$.v.jX      T.-.$.T.N.K.W.    ",
"-.T.T.T.v.T.N.$.v.T.T.T.T.T.W.                                                        W.I.b.M.N.T.B.T.-.    v.N.K.$.T.K.m.K.<X  ",
"..=.B.T.W.N.=.X.$.v.5XW.=.-.2XtXtX3XyXrX3X4XiX                                      =.T.R.V.T.G.G.K.K.N.N.v.K.m.T.@.T.K.T.N.$.lX",
"vXhXiXeXeXgXnXnXnXnX  nXnXnX                                                      yXF.m.b.R.B.G.T.T.N.N.T.&.N.T.v.=.K.N.N.N.T.3X",
"                                                                                  hXqX<X-.-.n.G.m.$.&.=.s.X.=.N.T...T.&.$.=.&.2X",
"                                                                                      nXnXbXpX4XeXMXnXnXnXnXgXeXyXpXeX          "
};
