/* XPM */
static char *e87f9e11e8d346faaa929ba9d8465dbdzTur6KUgBDICz1nc[] = {
/* columns rows colors chars-per-pixel */
"64 64 190 2 ",
"   c #575E34",
".  c #6D553D",
"X  c #645D3A",
"o  c #6C5B3D",
"O  c #70573F",
"+  c #70583F",
"@  c #49662E",
"#  c #466C2E",
"$  c #496D2F",
"%  c #536E2F",
"&  c #596E2F",
"*  c #4C732E",
"=  c #4F782B",
"-  c #557C26",
";  c #5A7D25",
":  c #53732B",
">  c #537B2E",
",  c #5A7828",
"<  c #4C6730",
"1  c #476E30",
"2  c #4B6C31",
"3  c #536633",
"4  c #5C6337",
"5  c #536B33",
"6  c #586E35",
"7  c #5E6338",
"8  c #5C6E39",
"9  c #4D7330",
"0  c #527332",
"q  c #597332",
"w  c #547C30",
"e  c #5A7D33",
"r  c #5C713A",
"t  c #667E24",
"y  c #687F24",
"u  c #76772C",
"i  c #616C33",
"p  c #61633A",
"a  c #6B643C",
"s  c #616B3B",
"d  c #6C6B3A",
"f  c #716635",
"g  c #617534",
"h  c #627D36",
"j  c #697D35",
"k  c #64713D",
"l  c #69723D",
"z  c #617A39",
"x  c #6D7C3E",
"c  c #72743E",
"v  c #727C3D",
"b  c #745B41",
"n  c #795F44",
"m  c #6F6C40",
"M  c #746242",
"N  c #7C6246",
"B  c #746C43",
"V  c #7D6A45",
"C  c #7F6448",
"Z  c #7F6C49",
"A  c #6C7241",
"S  c #747345",
"D  c #767841",
"F  c #7A7A43",
"G  c #7C754A",
"H  c #806447",
"J  c #816A47",
"K  c #826649",
"L  c #856A4B",
"P  c #8A6D4E",
"I  c #807547",
"U  c #817D46",
"Y  c #85744D",
"T  c #8B724E",
"R  c #857E49",
"E  c #8B7C4D",
"W  c #91754E",
"Q  c #8C6F50",
"!  c #8E7251",
"~  c #8E7951",
"^  c #957655",
"/  c #967856",
"(  c #987957",
")  c #977858",
"_  c #997A58",
"`  c #57811F",
"'  c #5E861F",
"]  c #5F891E",
"[  c #779D0F",
"{  c #789F0E",
"}  c #61861F",
"|  c #648B1B",
" . c #698F19",
".. c #768A1C",
"X. c #6C9416",
"o. c #6E9B15",
"O. c #66901A",
"+. c #6A9319",
"@. c #6D9818",
"#. c #709714",
"$. c #729B12",
"%. c #7CA40B",
"&. c #7EAB0A",
"*. c #7FB00A",
"=. c #75A212",
"-. c #78A612",
";. c #568024",
":. c #5B8423",
">. c #5E8821",
",. c #57802F",
"<. c #5A832D",
"1. c #578030",
"2. c #5B8332",
"3. c #658221",
"4. c #6A8622",
"5. c #638B23",
"6. c #618B2D",
"7. c #758F22",
"8. c #778A28",
"9. c #699429",
"0. c #6C932D",
"q. c #648435",
"w. c #6A8434",
"e. c #658C33",
"r. c #6A8C36",
"t. c #658039",
"y. c #6C833B",
"u. c #6D8A39",
"i. c #73853D",
"p. c #72893C",
"a. c #788E3A",
"s. c #649032",
"d. c #739035",
"f. c #778740",
"g. c #7C8443",
"h. c #84AC06",
"j. c #88AF03",
"k. c #81A709",
"l. c #81A909",
"z. c #88AE09",
"x. c #92AE0F",
"c. c #85B406",
"v. c #8CB501",
"b. c #86B906",
"n. c #8EBC00",
"m. c #84B409",
"M. c #8AB20A",
"N. c #8FBB09",
"B. c #90B701",
"V. c #91BC01",
"C. c #93B40E",
"Z. c #94BA0D",
"A. c #95AB1A",
"S. c #95B513",
"D. c #99B318",
"F. c #869629",
"G. c #959B2B",
"H. c #949C2C",
"J. c #87823D",
"K. c #958E3D",
"L. c #939534",
"P. c #9B9D32",
"I. c #99953A",
"U. c #98A428",
"Y. c #8EC200",
"T. c #8FC300",
"R. c #92C100",
"E. c #95C200",
"W. c #93C600",
"Q. c #95C600",
"!. c #99C300",
"~. c #9AC701",
"^. c #9DC601",
"/. c #95C800",
"(. c #9ACB01",
"). c #9CCB00",
"_. c #9ECD00",
"`. c #99C00B",
"'. c #A1C700",
"]. c #A1CD01",
"[. c #A2CE01",
"{. c #A0C409",
"}. c #A5D000",
"|. c #ABD301",
" X c #828346",
".X c #8B8747",
"XX c #848149",
"oX c #948345",
"OX c #968943",
"+X c #988C44",
/* pixels */
"n.Y.W.(.E.n.W.Q.W././.W.(.)./.W.(././.(.Y.Y.Y.Y.Y.Y.Y.Y.W.W.Q.(.(.^.n.Y.Y.Y.Y.Y.Y.Y.Q./.W./.Q.(.E.Q./._.V.Y.n.W.W.W.Y.Y.W./.Q.E.",
"Y.Y.W./.V.Y.Y.Y.Y.W./.W./.Q./.W././.W.W.Y.Y.Y.Y.Y.Y.Y.Y.W.W.W.~.!.n.Y.Y.Y.Y.Y.Y.Y.Y.W./.W.W.W./.R././.).Q.[.|.n.Y.Y.Y.Y.Y.Y.Y.Y.",
"Y.Y././.Q./.Q.Y.Y.Y.W.W.W./.Q.Y./.W.Y.Y.Y.Y.W.Y.Y.Y.Y.W.Q.Q.W./.[.).n.W.Y.Y.Y.Y.Y.Y.Y.W.W.Y.W.W.W././.W./.Q.).[.n.Y.Y.Y.Y.Y.Y.Y.",
"Y.Y.W.W.W.V.n.n.Y.Y.Y.Y.R.Q.R.W.Y.Y.Y.Y.Y.R.(.Y.).R.Y.Y.Y.Y.Y.R.Y.Y.(.[.Y./.).Y.Y.Y.Y.Y.Y.Y.Y.Y.W.W.Y.Q./.Q./.~.n.Y.Y.Y.Y.Y.Y.Y.",
"Y.Y.Q./././.Q.Y.Y.Y.Y.Y.Y.Y.Y.Y.Y.Y.Y.W.n.Q.R.(.Q.Q.Y.Y.Y.Y.Y.Y.Y.Y.(.R./.~.v.Y.Y.Y.Y.Y.Y.Q./.Y.Y.Y.Y.Q././.(.V.Y.Y.Y.Y.Y.Y.Y.Y.",
"n.Y.Y.W.Q.Q.^.R.Y.Y.Y.Y.n.n.n.n.Y.R.W.W.V./././.Q.E.Y.Y.Y.Y.Y.Y.Y.W./.W.(.V.(._.Q.Y.Y.Y.Y.Q.W.Y.Y.Y.Y.W./.W.n.Y.Y.Y.Y.Y.Y.Y.Y.W.",
"n.Y.Y.Y.Y.(.E.n.Y.Y.Y.n.v.v.v.v.Y.Q./.W./././.[.R.V.V.Y.Y.Y.Y.Y.Y.W././.Q.Q.Q.).~.Y.Y.Y.Y.R.W.Y.Y.Y.Y.Y.Y.Y.Y.Y.Y.Y.Y.~.n.E.R.[.",
"W.~.V.n.n.n.n.Y.Y.Y.Y.Y.Y.Y.Y.n.n.W.W.W.W.Q._.Q.W.(.Y.Y.Y.Y.Y.Y.Y.R././.W.Y.v.v.n.Y.Q.(./.W.W.W.Y.Y.Y.n.n.n.n.n.Y.Y./.E.).V./.!.",
"/.~.E.n.Y.Y.Y.Y.Y.Y.Y.Y.Y.Y.Y.Y.Y.Y./././.W.W.W.).V.n.n.v.v.v.v.v.n.Y.Q././.W.W.Y.Y.^.~.R.W.W.Y.Y.v.v.v.v.v.v.v.Y.W.Q.W.W./././.",
"R.R.R.n.v.v.v.v.v.v.n.Q././.Q.W.Y.Y.W./.(.[.Y.W.E.E.Y.n.n.M.c.n.n.Y.W.W./././.).Y.Y.).[.Q./.Q.R.Y.n.v.v.v.v.v.Y.Y.Y.Y.Y.W.W.W.W.",
"Y.R.V.n.n.n.v.n.n.n.Y.Y.Q.(././.W.Y.Y.Y.Y.Y.W.N.M.$.- ;.@.# > ` o.@.m.Q.R.^.[.[.Y.Y.n.E.R.R.W.Y.Y.Y.Y.Y.n.Y.W.Y.Y.W.).V.(.Y.Y.Y.",
"(.~.n.Y.Y.Y.Y.Y.Y.W.W.W.W.(.(.).[.Y.Y.Y.m.-.$.* * * w * * # * # 2 > * ] O.- >.=.$.=.n.m.Y.n.E.Y.Y.Y.Y.Q.Y.Y.(.E.R./.W./.~.Y.Y.W.",
"V.Y.W.W.Y.Y.W./.W.Q./.Q./.W.b.m.%.:.- >.* * > * * # w * # w * # 1.# # # * * > # 2 w $ $ ;.' +.@.b.Y.Y.[.!.W./.~.W././._.V.W.W.R.",
"Q.W./././.Y.W./.Q.V././.n.>.> * * w * # > # # 9 A l m 4 s s $ < s 5 2 5 $ # # # 2.* # * * * # > > b.Y.W.(.R./.W././.Q.V.Y.Y.W.Q.",
"Y.Q./.)./.W.W././.n.E.Q.;.* * 9 > # # # @ 5 A Y / ^ / b b L b . P ( ^ T X B A r k # 2 2 9 w # * # = = =.n.W.Q.W.Y.W.(.).n.Y.Y.Y.",
"Y.(.(.)./.W.Q./.(.n.n.@.$ 1.# 2 A S S Z . ! / V / ^ / P O + . L / / ^ P O P ( ( ( N . ! T ~ 4 7 8 0 * w - n.n.n.Y.Y.Y.Y.Y.Y.Y.Y.",
"Y.(.(.Q./.V.Q./._.n.&.* s   B ( / / ) P . / / / / / ) ( N . L / / / / P . ! / / / K . / J ^ b b ^ ^ r $ # #.v.v.v.v.v.v.n.Y.Y.Y.",
"Y.E.(.~.(.n.Y.[.E.n.F.! L . P ) ^ / T K + / ^ / ( / ) ) Q . ! ) ( L T P . ^ / / ) L . / T / n + ^ / ( o o 7.v.v.v.v.v.v.Y.R.Y.Y.",
"Y.n.n.V.v.Y.Y.V.n.Z.^ ) P . P / V ^ L L b ) / / ) ) ) ) P . ^ / / ! ^ K . / ) ) ) L . ^ ( / K . ^ / / + N OXV.Q./.W.Y.Q././.Q.Q.",
"W.Y.Y.Y.Y.Y.Y.Y.Y.H.^ ) ^ . b ^ / ( ( K b / ( ( ) ) P ) ^ . ! / ( ( / K b ( J / / L b ^ ^ / H . ^ ( ^ . K / `./.W.W.Q././.(.~.|.",
"/.W./.R.W.W.(.^.v.oX( ( / L . L / ) ( N + ) T ! ) ( L ) ^ . P ^ P ) ) K O ) T ^ V P O ^ ^ / P . ! ( L . ^ ( G.V.(./.Q.W.W.W.[.~.",
"(.W./.R././.~.V.M.( ^ T T / O . P ^ P . L ( ^ / ) ) ) ) / . C ( J ( ( L b ) ) ^ T P . ^ / ^ ^ O P / n O ^ ^ oXV.)./.R.n./.V.R.(.",
"R.(.(.n.Q././.).x./ / T T ^ K . C P N + / ) ) ) ^ T ) ^ / L b ( / ^ ^ K . ) ) / ) L . ! ^ ^ / O K / . n / ^ ^ C.V.n.v.v.Q.Q.n.Y.",
"Y.W.).v.v.[.).E.D._ ^ ) / ^ L + . K . K ) ( / ( / ^ / ( / / L L / / / P n ) ) / / P . P V ^ / b C Q . H L J / G.v.n.Y.n.(.Y.Y.Y.",
"Q.W.Y.n.v.v.V.V.F./ / ( / ! P K . + b ^ ) ) / / / / / / / / / b ^ / / / / / ! / / P . ! ( ( ( n b K . L ^ ^ / OXV.Q././.W.Y.Y.W.",
"W.W.Y.Y.n.v.l.@.l ( / L / / ^ P b . L ^ T ^ ! / / / / / / / / K K / / / / / / Q ^ L O L ( ( / N . b + P / ( ^ ( Z.~./.W.Q.W.W./.",
"~.R.Y.Y.n.-.q S ! ^ / J ^ ) / P K . P ^ L N L / / / / / / / / / b / / / / / / / / ^ b b ( ( ^ P . . N P / / / / H.[.E.W.R.[.Q.!.",
"Y.Y.Y.Y.o.k ( ( ( / / / ) ) V ^ H . P ^ ^ O P / / / / / / / / / K L / / / / / / / / ! b L ) ( ( b O P ^ L T L / OXY.E.W.Y.n.Y.n.",
"Y.Y.Y.Y.F.) ( ( / J / / ) / J / P . P / P O Q / / / / / / / / / P b / / / / / / / / / K b ^ / ) N b Q / ! ^ L ( / M.Y.V.V.R.Y.Y.",
"/.W.Y.Y.K.( P T ! P / / / ( / ) ! . P ^ H O C / / / / / / / / / ^ O P / / / / / / / / / + L ) ) C b ^ ( ) ) ( ( / j $.E.W.W.(.(.",
"/.W.Y.Y.+X) ) ) ( ) ^ Y ^ S G Y B . P / n O ^ K / / / / / / / / / b K / / / / / / / / / N N / / K b / ( / ( ^ L / ! U `.W.(.Q./.",
"W.W.Q.Y.+X_ ) G S S r w 9 # # # > 2 s S b b / ^ C / / / / / / / / N K / / / / / / / / / P 7 S S p X Y G ) ( ( / T C ^ A.)._.Q.Q.",
"W.W.W.Y.OXG r 2.# 9 9 w # # 2.# w $ # 2 + b / / / C ^ / / / / / / J N / / / / / / / / / ^ $ <.# # 9 w # 8 l S ! / ^ / U.Q././.R.",
"W.Y.Y.Y.w.1.w w # 9 1.# # # 2 # # 2.9 6 + b / / / / N b L / / / / P b / / / / / / / / / / s # # e.* 9 # > w # 2 ! / / P.(.R.Q.n.",
"Y.Y.Y.*.# # $ 3 5 # 3 X V m $ # 2 * 2 X + N / / / / / L O n / / / / b / / / / / / / / / / Y # # * 2 8 5 $ $ 3 6 ~ ) ( I.W.Q.W.Y.",
"Y.Y.Y.Y.L.^ b . ^ ^ N . P Q ! ! M M N + + C / / / / / / ! b N / / / b / / / / / / / / / / / p Z Y ^ ( P P b b ! / / / ~ Y.W.Y.Y.",
"Y.Y./.Q.A./ P . K ^ H . P L P J N b + + O K / / / / / / / / C n / / K P / / / / / / / / / / K N ( ( ( ! P b n / ^ ^ ( / N.Y.Y.Y.",
"Y.W._.Q.S.^ ^ b b / L . Q T ^ ^ C + + + O K / / / / / / / / / P n ! P n / / / / / / / / / / ^ b / P N V ! + N ( L ^ ) ) A.Y.Y.Y.",
"Y.Y.Y._.V.oX^ P . P P . P ^ ( ( K + + + O L / / / / / / / / / / ^ n L O ^ / / / / / / / / / / b ^ ( ^ ( ^ . P ) ( ) ( / F.n.Y.Y.",
"Y./.(.Y.Y.L.( / N . N . ^ / L / N + + O n / / / / / / / / / / / / / K O K / / / / / / / / / / K L ) ( ( P b ^ ( / ) ) ( S 5.W.[.",
"/.~.v.n.Y.L.T J ! b . b ) ( L ^ b + + b / / / / / / / / / / / / / / / ! n b N K P ^ / / / ^ P K N ( ^ / K . ( ( / _ ( b P ! S.W.",
"(.V._.[.U.( ^ P / / b b ( / / ^ + + + ! / / / / / / / / / / / / / / / / / / P K n b O b b C L ^ N ! L ) b n ( ( ( ) ^ . Q ) U.W.",
"Q.W.R.A.W ^ ! ^ Y Y b b ( Y Y P + + N / / / / / / / / / / / / / / / / / / / / / / / ^ ! / / / / P ! ( / b L _ ) ^ ^ L . P ( I./.",
"W.W.V.K.^ S # w # # > $ r $ # a + + J / / / / / / / / / / P / / / / / / / / / / / / / / / / / / / P ) Q b ^ ( J J ! K . C Q K.W.",
"/./.N.v 0 9 # w * * * $ # w $ d + + M / / / / / / / / / / N / / / / / / / / / / / / / / / / / / / ^ ) N b ( ( ! ( ) n + . . oXR.",
"Q.M.= * * * 1 # * w $ # # 1.* X O O M N ^ / / / / / / / Q N / / / / / / / / / / / / / / / / / / / ^ / . K ) / ( ) ( B M / ^ ( Z.",
"(.:.* h 8 G l 4 M T Y 7 8 V D . O O Z L b ^ / / / / / / K . / / / / / / / / / / / / / / / / ~ / / / K . ^ / / / ^ / + F ) / ( P.",
"{.q.x ( ( ( ( N M ^ P . P / F + O O Q / N b Q / / / / / N . b b N K P ^ / / / / / / / / / R g./ / / N b ^ / / ( / / d v ) / / OX",
"L. Xp.^ T R ( Y a I V a ~ / I + + + ! / / b + L / / / / n + ^ ^ P K n b + b N K P K b V / R p.~ / ~ L P R XX^ XXE / d u.E ^ ^ XX",
".X Xu.Z F u.E R d j l v g.R J . + + T / / ^ K n n C L ! N + L / / / / / ! L C b b K ! g. X^ e. XXXg.g.~ g.i.f. Xg.v . e.U R  Xa.",
"a.g.u.U p.e.U g.v q.q.p.r.u.B X o + Y / / / / / / ! L N b + J / / / / / / / / / Y ! / E p.R e.g.u.p.i.g.p.u.r.i.r.e.c e.v i.p.d.",
"r.g.r.t.u.e.g.p.r.q.e.u.r.e.M . 7 + T / / / / / / / / ! a + C / / / / / / / / / ! S / / p.g.e.g.r.u.p.u.q.p.r.p.e.e.i.e.i.u.p.r.",
"0.g.1.w u.s.p.p.r.h q.u.e.r.M X 3 . ! / T / / ! / ^ / S 4 + M / / / T ! / ^ / / S l / / g.y.e.i.e.u.e.r.0 q.e.r.e.e.y.e.i.r.u.d.",
"9.i.q.9 v e.q.t.r.e e u.e e.u o 2 X o Z S / Y A ! l ^ S 5 o o G T / S S ! S Y ^ J.q Y ^ F q.e.q.e q.w r.0 z e.q.e e.t.2.q.1.y.0.",
"<.5.9.# 6.<.> <.9.> > * ,.> t f # 7 7 4 4 B l 8 8 6 l D : p 7 8 A Y A k 8 S k A E } S S z e e.w 0 9 9 e 0 :.6.> > 6.<.> <.* <.> ",
"Y.#.l.* o.- ;.} o.>.:.- ' -  ...$ 4 3 & 3 4 5 2 : 6 2 4. .7 2 5 5 i q 6 2 g 5 2 8.#.A 8 8 g A k q 2 0 2 q +.=.- >.o.- >.- ; - - ",
"/.%.l.= @.' - >. . .] >.' =  .k.$ & : t 2 ; 3.: ; : $ } [ i $ , % 2 3.4.% t : 2 y %.t : , } : :. .* :.- *  .%.- -  .= O. .} } ' ",
"R.V.h.- X.%.} } +.%.X.+.#.| } j.- X.X.#.} +.%.X. .X. .- h. .} $.+.- #.%.$. .X. .+.v.X.} #.$.- X.%.#. .+.' | %.:. .%.} O. .%.#.X.",
"V.z.j.} %.j.+.#.#.%.l.{ h.k.X.j.| %.%.l.#.#.%.h.%.h.h.| v. .%.%.[  .%.%.h.$.l.h.%.v.+.{ %.%. .$.h.j.#. .$.#.h. .%.j.+.#.#.%.%.{ ",
"v.l.j.%.h.v.{ k.h.j.j.h.j.v.{ j.%.j.h.j.%.%.j.v.h.v.v.%.v.%.j.j.h.l.j.l.j.&.v.v.%.v.%.h.h.j.l.l.j.v.$. .j.{ j.%.j.v.%.k.j.j.v.l.",
"v.n.v.v.v.v.v.v.v.v.v.v.v.v.v.v.v.v.v.v.v.v.v.v.v.v.v.n.v.n.v.v.v.v.n.v.v.v.v.v.n.v.n.v.v.V.v.v.v.v.v.v.v.v.v.v.v.v.v.v.v.n.v.v.",
"v.n.v.v.n.v.v.v.v.n.v.v.v.v.n.v.v.v.v.v.v.v.v.v.v.v.v.n.v.v.v.v.v.v.n.n.v.v.v.v.n.v.v.v.v.V.v.v.v.v.v.v.v.v.v.v.V.v.v.B.v.V.v.v.",
"v.v.v.v.v.v.v.v.v.B.v.v.v.v.v.v.v.v.B.v.v.v.v.v.v.v.v.v.v.v.v.v.v.v.v.v.v.v.v.v.v.v.v.v.V.v.v.v.v.v.v.v.v.v.v.v.v.v.v.v.v.v.v.v.",
"}.V.Y.Q.Q.Y.Q._.(._.}.Y.Q.}.}.Q.W.[.Q.[.W.Y.Y.Y.Y.Y.Y.Y.W.E.W.Q.(.Y.Y.Y.Y.Y.Y.Y.Y.Q.(.}.}./.W./.E.Y._.|.'.Y.Y.(.W./.W.W.W././._."
};
