/* XPM */
static char *_887bfef58414aaab2eb03649b6660f6Kqn0aK5bppztTskp[] = {
/* columns rows colors chars-per-pixel */
"64 64 224 2 ",
"   c #1A0702",
".  c #1E0B05",
"X  c #200E07",
"o  c #200F08",
"O  c #25130A",
"+  c #231408",
"@  c #28170C",
"#  c #2A190E",
"$  c #321F0E",
"%  c #2D1D11",
"&  c #311F10",
"*  c #2B240D",
"=  c #38240E",
"-  c #2F2013",
";  c #332314",
":  c #372816",
">  c #3B2B14",
",  c #3B2C1A",
"<  c #3B3616",
"1  c #422E18",
"2  c #483615",
"3  c #44351A",
"4  c #4C3C1B",
"5  c #513D16",
"6  c #4A3623",
"7  c #513E29",
"8  c #454F1C",
"9  c #54431A",
"0  c #554419",
"q  c #5B4A1C",
"w  c #614E1C",
"e  c #5D4631",
"r  c #614C2F",
"t  c #695725",
"y  c #705D20",
"u  c #644C35",
"i  c #664E39",
"p  c #685637",
"a  c #6D553D",
"s  c #6D5C3E",
"d  c #735C37",
"f  c #70573E",
"g  c #735A3E",
"h  c #785F3F",
"j  c #49662E",
"k  c #466C2E",
"l  c #496D2F",
"z  c #546728",
"x  c #4C732E",
"c  c #4F782B",
"v  c #557D26",
"b  c #53762E",
"n  c #547B2D",
"m  c #5A7B29",
"M  c #5A7C2C",
"N  c #4C6730",
"B  c #4A6E30",
"V  c #536D34",
"C  c #586836",
"Z  c #4D7330",
"A  c #517431",
"S  c #5C7236",
"D  c #547B30",
"F  c #5B7D31",
"G  c #6B6639",
"H  c #636B3A",
"J  c #6C6C3A",
"K  c #7B623E",
"L  c #746C3B",
"P  c #637B34",
"I  c #63733B",
"U  c #6A7939",
"Y  c #72763B",
"T  c #747D3D",
"R  c #7A793C",
"E  c #745B41",
"W  c #795E43",
"Q  c #6F6C40",
"!  c #7C6343",
"~  c #766944",
"^  c #7B6A43",
"/  c #7F6348",
"(  c #6C7341",
")  c #737444",
"_  c #7C7646",
"`  c #846B3D",
"'  c #817535",
"]  c #816645",
"[  c #846B44",
"{  c #896E45",
"}  c #826649",
"|  c #866B4A",
" . c #8A6D4D",
".. c #8C7444",
"X. c #847B45",
"o. c #857549",
"O. c #8D724D",
"+. c #847C49",
"@. c #8B7C4D",
"#. c #947B41",
"$. c #997F45",
"%. c #92754D",
"&. c #947B4C",
"*. c #997C4E",
"=. c #8C6F50",
"-. c #8E7351",
";. c #8F7951",
":. c #947554",
">. c #967955",
",. c #9A7B55",
"<. c #997A58",
"1. c #5D841F",
"2. c #769C0F",
"3. c #789F0E",
"4. c #61871E",
"5. c #648C1B",
"6. c #698E1C",
"7. c #6C9416",
"8. c #6E9B15",
"9. c #6B931A",
"0. c #6A9419",
"q. c #739B13",
"w. c #769B15",
"e. c #71951A",
"r. c #749B19",
"t. c #7CA40B",
"y. c #7EAB0A",
"u. c #7FB00A",
"i. c #75A212",
"p. c #7CA311",
"a. c #5C8423",
"s. c #5C8626",
"d. c #5B832D",
"f. c #578031",
"g. c #5C8332",
"h. c #658A23",
"j. c #648928",
"k. c #638A2E",
"l. c #758F22",
"z. c #6D9328",
"x. c #73992B",
"c. c #648433",
"v. c #6A8534",
"b. c #658C33",
"n. c #6B8C36",
"m. c #668139",
"M. c #6D833A",
"N. c #6E8A39",
"B. c #728D35",
"V. c #778439",
"C. c #74843D",
"Z. c #738B3B",
"A. c #7B8E3D",
"S. c #659032",
"D. c #6C9234",
"F. c #729236",
"G. c #799339",
"H. c #7FA021",
"J. c #7B8442",
"K. c #7A8840",
"L. c #84AC06",
"P. c #88AF04",
"I. c #81A60C",
"U. c #84AA0B",
"Y. c #89AE0A",
"T. c #8CB401",
"R. c #8EBC00",
"E. c #86B608",
"W. c #8DB20A",
"Q. c #91B604",
"!. c #92BC01",
"~. c #94B90D",
"^. c #89AC10",
"/. c #97AC1B",
"(. c #97B416",
"). c #85962A",
"_. c #949B2C",
"`. c #8B8D37",
"'. c #968E3F",
"]. c #999737",
"[. c #A58E39",
"{. c #96A12B",
"}. c #A0AE25",
"|. c #D1BB3D",
" X c #8FC300",
".X c #95C200",
"XX c #93C400",
"oX c #93C600",
"OX c #9AC502",
"+X c #95C800",
"@X c #9BCA01",
"#X c #9DCA01",
"$X c #99C00B",
"%X c #A2CE01",
"&X c #A1CD02",
"*X c #A2C807",
"=X c #A5D000",
"-X c #ABD301",
";X c #DDC63E",
":X c #848346",
">X c #8A8746",
",X c #838A43",
"<X c #8C844A",
"1X c #978645",
"2X c #958A43",
"3X c #93834C",
"4X c #9B824B",
"5X c #919143",
"6X c #9E8055",
"7X c #A68A4B",
"8X c #AE924A",
"9X c #B79C4B",
"0X c #A28454",
"qX c #A68953",
"wX c #AA8C54",
"eX c #A18258",
"rX c #AF9151",
"tX c #B49653",
"yX c #BCA14B",
"uX c #CEB448",
"iX c #DCC347",
"pX c #E8D046",
"aX c #F3DC45",
"sX c #F9E245",
/* pixels */
"R. XoX@X.XR.oXoXoX+X+XoX@X@X+XoX@X+X+X@X X X X X X X X XoXoXoX@X@X%XR. X X X X X X XoX+XoX+XoX@X.XoX+X#X!. XR.oXoXoX X XoX+XoX.X",
" X XoX+X!. X X X XoX+XoX+XoX+XoX+X+XoXoX X X X X X X X XoXoXoXOX.X!..X X X X X X X XoX+XoXoXoX+X.X+X+X@XoX%X-XR. X X X X X X X X",
" X X+X+XoX+XoX X X XoXoXoX+XoX X+XoX X X X XoX X X X XoXoXoXoX+X%X@X!.oX X X X X X X XoXoX XoXoXoX+X+XoX+XoX@X%XR. X X X X X X X",
" X XoXoXoX!.R.R. X X X X.XoX.XoX X X X X X.X@X X@X.X X X X X X.X X X@X%X X+X@X X X X X X X X X XoXoX XoX+XoX+XOXR. X X X X X X X",
" X XoX+X+X+XoX X X X X X X X X X X X XoXR.oX.X@XoXoX X X X X X X X X#X.X+XOXT. X X X X X XoX+X X X X XoX+X+X@X!. X X X X X X X X",
"R. X XoXoXoXOX.X X X X XR.R.R.R. X.XoXoX!.+X+X+XoX.X X X X X X X XoX@XoX@X!.@X#XoX X X X XoXoX X X X XoX+XoXR. X X X X X X X XoX",
"R. X X X X@X.XR. X X XR.T.T.T.T. XoX+XoX+X+X+X%X.X!.!. X X X X X XoX@X@XoXoXoX@XOX X X X X.XoX X X X X X X X X X X X XOXR..X.X%X",
"oXOX!.R.R.R.R. X X X X X X X XR.R.oXoXoXoXoX#XoXoX@X X X X X X X X.X+X#XoX XT.T.R. XoX@X+XoXoXoX X X XR.R.R.R.R. X X+X.X@X!.+X.X",
"+XOX.XR. X X X X X X X X X X X X X X+X+X+XoXoXoX@X!.R.R.T.T.T.T.T.R. X*X+X+XoXoX X XOXOX.XoXoX X XT.T.T.T.T.T.T. XoXoXoXoX+X+X+X",
".X.X.XR.T.T.T.T.T.T.R.oX+X+XoXoX X XoX+X@X%X XoX.X.X XR.R.P.P.R.R. XoX#X@X+X+X@X X X@X%XoX+XoX.X XR.T.T.T.T.T. X X X X XoXoXoXoX",
" X.X!.R.R.R.T.R.R.R. X XoX@X+X+XoX X X X X XoXR.W.q.v a.0.k n 1.8.0.E.@X#XOX%X%X X XR..X.X.XoX X X X X XR. XoX X XoX@X!.@X X X X",
"@XOXR. X X X X X XoXoXoXoX@X@X@X%X X X XE.i.q.x x c D x x k x k B b c 4.H.v a.i.8.i.R.E. XR..X X X X XoX X X@X.X.X+XoX+XOX X XoX",
"R. XoXoX X XoX+XoXoX+XoX+XoXE.E.t.s.v a.x x b c x k D x k D x k f.l k k v.c n k B D l l a.1.9.0.E. X X%X.XoX+XOXoX+X+X#X!.oXoX.X",
"oXoX+X+X+X XoX+XoX!.+X+XR.a.n x x D x k f.k k Z ( J Q C H H k N H V B V F x k k g.x k x x x k n n E. XoX@X.X+XoX+X+XoX!. X XoXoX",
" X+X+X@X+XoXoX+X+XR..XoXa.x c Z b k k k j V ( | >.:.>.E E | E a  .>.:.O.G X.( I I k B B Z D k x k b c i.R.oXoXoX XoX@X@XR. X X X",
" X@X@X@X+XoXoX+X@XR.R.e.l f.k B ( ) ) ^ a -.>.^ >.:.>. .f f p | >.>.:. .E 0X<.<.<.^ s -.@.;.C C S A x D b R.R.R. X X X X X X X X",
" X@X@XoX+X!.oX+X#XR.y.x H C Q >.>.>.<. .a >.>.>.>.>.<.<./ p | >.>.>.>. .f 7X<.<.<.| f <.[ >.W E :.:.S l k q.T.T.T.T.T.T.R. X X X",
" X.X@XOX@XR. X%X.XR.).-.| a  .<.:.>.O.} f >.:.>.<.>.<.<.=.a =.<.<.| O. .f wX,.<.,.| g ,.%.<./ g :.>.>.s s l.T.T.T.T.T.T. X.X X X",
" XR.R.!.T. X X!.R.~.:.<. .a  .>.^ :.| | E <.>.>.<.<.<.<. .p :.>.<.:.,.| g wXwXeX,.O.K ,.,.,.| f :.>.>.f / 2X!.oX+XoX XoX+X+XoXoX",
"oX X X X X X X X X_.:.<.-.a E :.>.>.<.} E >.>.>.<.<. .<.:.a -.<.,.,.,.| ! 0X7X6X6X%.^ ,.,.,.| f :.<.:.a } >.~.oXoXoXoX+X+X@XOX-X",
"+XoX+X.XoXoX@XOXT.3X<.<.>.| a | >.<.<./ f <.O.:.<.>.| <.:.a  .>.%.6XeX{ ! eX9X,...%.^ ,.,.,.%.f :.<. .a :.>._.!.@X+XoXoXoXoX%XOX",
"@XoX+X.X+X+XOX!.W.,.:.O.O.>.f a  .:. .a | <.:.>.<.<.<.<.>.f } ,...,.eXO.^ 0XyX0X*.*.K ,.eX,.,.K O.<./ f :.:.1X!.@X+X.XR.+X!..X@X",
".X@X@XR.oX+X+X@XW.,.>.O.O.:.} a /  .! f >.<.<.<.:.O.<.,.,. .g ,.,.%.*.O.^ 0XtXrX0X*.` *.*.*.,.K | ,.f / >.:.>.~.!.R.T.T.oXoXR. X",
" XoX@XT.T.%X@X.X(.<.:.<.>.-. .f a } a } <.>.>.>.>.:.>.>. .{ { { ^ K K [ ] 0XwX9XqX4XK *...*.,.^ | :.f } | } >._.T.R. XR.@X X X X",
"oXoX XR.T.T.!.!.).>.>.<.>.-. .} a f E :.<.<.>.>.>.:./ a f f ! { 4X$.{ [ [ ..4XuXtX7X` ,.0X0XeX[ ^ | f | :.:.>.2X!.oX+X+XoX X XoX",
"oXoX X XR.T.U.7.I <.>.| >.>.:. .E a | :. .>.>.>.>.:.a a f / | | | ..$.8X1X$.[.uXuX9X#.&.0X0X0X{ K ! h O.>.<.:.>.~.OX+XoXoXoXoX+X",
"OX.X X XR.p.b ) -.:.>.} :.<.>. .} a  .:.| >.| >.:.=.a E p g ] | | d d { 4XyXiXaXaXiX7X#.qX0X0X*.h g ] O.<.>.>.>._.%X.XoX.X%XoX.X",
" X X X X8.I >.>.>.>.>.>.<.<.^ :.} a  .:.:.:. .>.>. .f E W p r r 6 3 2 4 q ' |.aXsXpXyX..&.0XeXeXK h O.:.| O.| >.2X X.XoX XR. XR.",
" X X X X).<.>.<.>.} >.>.<.>.} >. .a  .>.>.>.>.>. .a a p 7 , 3 3 3 2 4 9 q t [.;XpXiXuX8X#.0X0XeX[ ! %.>.:.:.| >.>.E. X!.!..X X X",
"+XoX X X'.>. .O.-. .>.>.>.>.>.<.-.a  .:.:.:.:.>.f a / u , , , , 3 2 9 9 0 w y `.uX8X7X0X#.8XtX0X| ! :.<.<.<.<.>.>.P q..XoXoX@X@X",
"+XoX X X2X<.<.<.>.<.:.o.:.) _ o.) a  .>.>.<.>.-.a a E 6 , , > > > 2 9 q q q q t [.7XqXqX{ { qXwX4X[ <.<.>.>.:.| >.-.X.$XoX@XoX+X",
"oXoXoX X2X<.<._ ) ) S D Z k k k b B H ) :.:.>.| E a i : : : : > > 2 5 q w q 0 2 ` 7X0X0X%.J _ _ J L <X@.<.<.<.>.O.^ :./.@X#XoXoX",
"oXoXoX X2X_ S g.k Z Z D k k g.k D l k k S ) <./ E } 7 ; : : : : : 1 2 9 0 0 5 1 p ].P P P D c.b x D D l I Y ) -.>.:.>.{.oX+X+X.X",
"oX X X Xv.f.D D k Z f.k k k B k k g.c F D A >.f E ! , ; - ; ; : ; : 1 2 2 2 2 < z ].D.M g.A b b b.c Z k n D k V -.>.>.].@X.XoXR.",
" X X Xu.k k l V V k V s ^ Q l k l c x x Z S :.E E e : ; - ; ; ; ; ; ; : > > = 4 G V.c.n F l x Z b B S V l l C C ;.<.<.'.oXoXoX X",
" X X X X_.:.E a >.>.] f  .-.-.-.! ^ >.:.s O.-.f a : ; ; ; % % % # & $ $ $ = u h g { >XU _ ) G | @.:.>. . .E E -.>.>.>.4X XoX X X",
" X X+XoX/.>.O.f | >.{ g %.O.O.| ] ! >.>.E | | f E : ; ; % % % # # # # # $ p g ] ] ] rX:.<.>.W / <.>.>.-. .E W >.:.:.>.>.R. X X X",
" XoX#XoX(.,.,.! ! ,.O.g %.%.,.,.| ! <.<.W E ! p / , - % % % @ @ @ @ @ @ 6 g ! :.[ g wX:.<.:.] E >. .^ ^ -.f / <.| :.<.<./. X X X",
" X X.X%X$X1X>.O.f O.O.g O.,.,.6XO.! ,.,.W a a p E 6 % % % # @ @ @ + o O 6 g W  .! f qX,.<.<.| a :.>.:.>.:.a  .<.<.<.>.>.).R. X X",
" X@X#XoX.X].,.,.] g [ g ,.,.O.,.%.K %.,.] a f W a , - % # # @ O + o X . 1 f f  .} a 6X0X^ O.:.a | <.<.<. .E :.<.>.<.<.>.) h.oX%X",
"+X#XQ..XoX].%.O.:.! f ! eX6XO.,.*.K { ,.| g / / e % % % # @ @ + + X . X e a a  .| a O.qX-.:.>.E / >.:.>.} a >.<.>.<.>.E  .-.(.oX",
"#XOX%X%X}.,.,.%.,.<.! ! ,.,.,.,.,.K [ ,.%.! ] / 6 % % # # O + o . . . 1 a W p }  .a } wX<.>.<./ a -.| <.E W <.>.<.<.:.a =.<.{.oX",
"@XoX$X/.*.<.>.,.@.@.^ ^ ,.3X4XqXqX[ | ,.>.! ] / : % # # @ + + X X . : a } -.a }  .a } wX<.>.<. .a :.<.>.E | <.<.:.:.| a  .<.].+X",
"@XOX$X].,._ b g.Z x F D U P P `.>X&.4XeX:.K g p % % # # @ + . X . . u E >.>.E / E f :.0XeX>.<.-.f | <.=.E :.>.| } -.} a / =.'.oX",
"#X@X~.R F D A F A D M b F n.c.G.c.n.U &.[ K } e % # # @ @ o X . . X i } <.<.W E a } >.<.0X<.>.>.E } <./ E <.>.-.<.<.W f a a 1X.X",
"@XW.n D F D A Z D g.A b F B.B.B.v.F.c.b G ] | 9 ; # @ @ @ X . . . . i } <.<.} G f >.<.>.0X>.>.<./ E >.a } <.>.<.<.<.~ ! >.:.,.~.",
"%Xj.D m.I +.) H ~ @.@.H Y #.>X2X`.' V.F H [ O.1 ; # > @ O . . .   . u } :.>.} J =.<.<.<...O.~ >.| a } a :.>.>.>.:.>.f _ <.>.>._.",
"*Xv.J.,.,.,.,.} ^ >.%.K %.0X5X5X#.&.wX&.} ^ [ = = @ z * X . .   . 6 a | ^ :.E M.@.>.:.O.>.<XJ.>.:.a a E >.>.>.>.>.>.J T <.>.>.2X",
"].,XA.<.&.<X6XO.L X.^ L &.eX5X`.....qX3XeXX.R 9 8 @ z 8 . . *   8 s _ | o.^ E V.V.>.O.o.<X<XN.:X>.J a  .+.:X:.:X@.>.J v.@.:.>.:X",
"5X>XZ.o.X.Z.3X<XY C.Y V.,X3X>XG.X.R ,X,X&.>XB.T m < 8 M + < 8 * z U J.M.:XU ^ J.n.;.@.Z.J.3Xb.N.Z.m.U ;.J.C.K.:XJ.T a b.+.+.:XA.",
"A.,XZ.:XA.D.:XK.T v.N.A.F.Z.V.n.Y M.Z.A.>X,XZ.n.n.b.F c.z m b < S U n.Z.N.c.N.J.c.J.Z.Z.b.K.S.b.b.b.n.Z.Z.N.n.V.n.b.Y S.T C.Z.F.",
"F.,Xn.C.Z.D.,XA.F.n.D.F.F.D.,XF.C.F.M.B.A.K.F.D.n.b.c.c.P c.c.z c.U n.v.b.c.N.Z.b.F n.V.b.Z.S.n.S.S.b.b.c.Z.n.Z.b.b.Z.b.C.N.Z.n.",
"x.,Xc.c.Z.D.A.A.G.v.n.F.D.F.,Xc.F D.V.N.n.F.F.n.B.b.n.f.F c.c.c.m.b.c.b.b.c.b.J.f.D n.N.n.c.D.b.b.b.b.b.A v.b.n.c.b.M.b.C.n.N.B.",
"x.A.n.D J.D.n.Z.F.c.c.Z.c.n.).n.A b.Z.v.c.F.N.g.n.D b.g.A v.b.g.C.b.F f.c.g.b.J.z.b m.b.M.g.D.g.D b.D b.A P b.c.F b.m.g.c.f.M.D.",
"k.z.x.A k.k.c.k.x.d.f.F c.F l.x.A k.k.c.c.z.d.M D Z b s.v d.d.n d.k.d.b b d.b n z.4.s.d.d.n b.n b x Z d.c s.k.D n k.d.b d.c s.b ",
"oXw.^.n r.s.j.h.r.h.h.s.h.s.e.Y.b r.h.9.h.r.h.d.v a.x 0.5.8.v v h.0.a.a.x 4.v x i.q.8.a.a.4.r.1.v x v x a.7.i.v a.8.v a.v v v v ",
"@XU.U.M r.h.s.h.9.9.h.h.h.n e.Y.M 9.h.r.s.6.e.a.a.a.l 4.3.8.b 1.a.v 7.q.v 7.v x q.t.q.v a.5.v 5.0.x a.v x 5.t.v v 5.x 6.5.4.4.1.",
"OX!.Y.M r.U.6.6.e.U.r.e.w.9.6.W.s.r.w.w.h.e.I.7.6.7.5.v L.0.4.q.7.v q.t.q.6.7.6.0.P.7.4.q.q.v 7.t.q.6.0.1.5.t.a.5.t.4.6.5.t.q.7.",
"!.W.W.6.I.W.e.w.w.U.U.I.Y.U.r.W.6.I.I.Y.w.r.t.L.t.L.L.5.T.5.t.t.2.6.t.t.L.q.U.L.t.T.7.3.t.t.6.q.L.P.q.5.q.8.L.5.t.P.0.q.q.t.t.3.",
"T.U.W.U.Y.Q.p.U.Y.W.W.Y.W.Q.p.W.U.W.Y.Y.U.I.P.T.L.T.T.t.T.t.P.P.L.U.P.U.P.y.T.T.t.T.t.L.L.P.U.U.P.T.q.5.P.3.P.t.P.T.t.I.P.P.T.U.",
"T.R.T.Q.!.Q.Q.Q.Q.Q.Q.Q.Q.Q.Q.Q.Q.Q.Q.Q.T.T.T.T.T.T.T.R.T.R.T.T.T.T.R.T.T.T.T.T.R.T.R.T.T.!.T.T.T.T.T.T.T.T.T.T.T.T.T.T.T.R.T.T.",
"T.R.T.T.R.T.T.T.T.R.T.T.T.T.R.T.T.T.T.T.T.T.T.T.T.T.T.R.T.T.T.T.T.T.R.R.T.T.T.T.R.T.T.T.T.!.T.T.T.T.T.T.T.T.T.T.!.T.T.Q.T.!.T.T.",
"T.T.T.T.T.T.T.T.T.Q.T.T.T.T.T.T.T.T.!.T.T.T.T.T.T.T.T.T.T.T.T.T.T.T.T.T.T.T.T.T.T.T.T.T.!.T.T.T.T.T.T.T.T.T.T.T.T.T.T.T.T.T.T.T.",
"=X!. XoXoX XoX#X@X#X=X XoX=X=XoXoX%X+X%XoX X X X X X X XoX.XoXoX@X X X X X X X X XoX@X=X=X+XoX+X.X X#X-X%X X X@XoX+XoXoXoX+X+X#X"
};
