/* XPM */
static char * Floor_xpm[] = {
"64 64 424 2",
"  	c #8FBE00",
". 	c #8EC200",
"+ 	c #91C400",
"@ 	c #9ACB00",
"# 	c #97C200",
"$ 	c #8EBD00",
"% 	c #94C500",
"& 	c #92C500",
"* 	c #96C900",
"= 	c #91C500",
"- 	c #9BCB01",
"; 	c #9CCB00",
"> 	c #98C900",
", 	c #95C800",
"' 	c #99CA00",
") 	c #8FC300",
"! 	c #90C400",
"~ 	c #92C600",
"{ 	c #94C700",
"] 	c #9ACA01",
"^ 	c #9EC701",
"/ 	c #8EBF00",
"( 	c #93C500",
"_ 	c #95C000",
": 	c #97C900",
"< 	c #9FCE00",
"[ 	c #90BD00",
"} 	c #93C600",
"| 	c #94C300",
"1 	c #8FC301",
"2 	c #93C700",
"3 	c #91BA01",
"4 	c #8EC000",
"5 	c #93C501",
"6 	c #99C501",
"7 	c #99C301",
"8 	c #8FBF00",
"9 	c #90C200",
"0 	c #9EC801",
"a 	c #97C701",
"b 	c #A1CE00",
"c 	c #A9D201",
"d 	c #8FBC00",
"e 	c #8FC200",
"f 	c #8EC100",
"g 	c #97C800",
"h 	c #96C600",
"i 	c #8EC300",
"j 	c #A2CD01",
"k 	c #9DC800",
"l 	c #8EBE00",
"m 	c #92C400",
"n 	c #95C700",
"o 	c #9ECA01",
"p 	c #A1CE01",
"q 	c #8EBA00",
"r 	c #91BD00",
"s 	c #8DB900",
"t 	c #8EBB00",
"u 	c #90C300",
"v 	c #98C801",
"w 	c #8FC000",
"x 	c #91C200",
"y 	c #98C800",
"z 	c #A3CE01",
"A 	c #8FC100",
"B 	c #9DC901",
"C 	c #99C701",
"D 	c #93C301",
"E 	c #99C800",
"F 	c #96C701",
"G 	c #96C700",
"H 	c #93C200",
"I 	c #9AC700",
"J 	c #8CB301",
"K 	c #96C500",
"L 	c #98CA00",
"M 	c #8FBF01",
"N 	c #94C400",
"O 	c #9DC601",
"P 	c #93C100",
"Q 	c #8EBC00",
"R 	c #96C800",
"S 	c #96C201",
"T 	c #99C901",
"U 	c #93BE01",
"V 	c #9ECC00",
"W 	c #95C600",
"X 	c #96C400",
"Y 	c #94C800",
"Z 	c #8DB700",
"` 	c #8DB601",
" .	c #8DB501",
"..	c #97C801",
"+.	c #A2CF00",
"@.	c #90C100",
"#.	c #91BA00",
"$.	c #91BE00",
"%.	c #94C600",
"&.	c #9CC800",
"*.	c #99C400",
"=.	c #95C001",
"-.	c #A0CB01",
";.	c #93C601",
">.	c #9BC701",
",.	c #91BB00",
"'.	c #8DBD00",
").	c #8FBD00",
"!.	c #8DBC00",
"~.	c #A0CE00",
"{.	c #97C700",
"].	c #8DB500",
"^.	c #9CCA01",
"/.	c #91BE01",
"(.	c #99C200",
"_.	c #9AC601",
":.	c #97C100",
"<.	c #8DBB00",
"[.	c #9CCB01",
"}.	c #91B800",
"|.	c #8DBA00",
"1.	c #8DB600",
"2.	c #8CB500",
"3.	c #9DC600",
"4.	c #98C400",
"5.	c #93C300",
"6.	c #8DB701",
"7.	c #8DB401",
"8.	c #8CB600",
"9.	c #91C101",
"0.	c #A0CD00",
"a.	c #95C101",
"b.	c #95C200",
"c.	c #8DB800",
"d.	c #9CCA00",
"e.	c #9FCB01",
"f.	c #93C000",
"g.	c #92BF00",
"h.	c #8DB801",
"i.	c #95BE00",
"j.	c #91C300",
"k.	c #9CC600",
"l.	c #A1CA00",
"m.	c #96C301",
"n.	c #92C300",
"o.	c #93C400",
"p.	c #9ECB01",
"q.	c #90BE00",
"r.	c #99C900",
"s.	c #9ACA00",
"t.	c #9CC900",
"u.	c #A2CE00",
"v.	c #97C401",
"w.	c #95BE01",
"x.	c #94C000",
"y.	c #9AC500",
"z.	c #90BF00",
"A.	c #92C100",
"B.	c #90B700",
"C.	c #9AC400",
"D.	c #8DB901",
"E.	c #96BF01",
"F.	c #9BC501",
"G.	c #A9D301",
"H.	c #8CB201",
"I.	c #A9D100",
"J.	c #9AC300",
"K.	c #92C000",
"L.	c #95C501",
"M.	c #8FBA01",
"N.	c #99C601",
"O.	c #91BF00",
"P.	c #94BE01",
"Q.	c #8FB900",
"R.	c #97C500",
"S.	c #9DCC00",
"T.	c #9BCB00",
"U.	c #90C000",
"V.	c #93BF00",
"W.	c #8FC201",
"X.	c #96C300",
"Y.	c #95C500",
"Z.	c #99C801",
"`.	c #9BCA00",
" +	c #92C001",
".+	c #A2CE01",
"++	c #94C501",
"@+	c #9FCA01",
"#+	c #8FC101",
"$+	c #95C900",
"%+	c #8EB800",
"&+	c #94C100",
"*+	c #95C701",
"=+	c #9EC601",
"-+	c #9ECD00",
";+	c #9CCC00",
">+	c #91C100",
",+	c #8FC001",
"'+	c #9AC800",
")+	c #97CA00",
"!+	c #9FCC00",
"~+	c #8DBE00",
"{+	c #9ECA00",
"]+	c #A0CC00",
"^+	c #97C501",
"/+	c #9AC401",
"(+	c #ADD500",
"_+	c #9BC800",
":+	c #99C500",
"<+	c #A3CF00",
"[+	c #9DCB00",
"}+	c #95C301",
"|+	c #9AC600",
"1+	c #8EB900",
"2+	c #92BD00",
"3+	c #8EB700",
"4+	c #A6D200",
"5+	c #8BB001",
"6+	c #8CB300",
"7+	c #9BC700",
"8+	c #8EBD01",
"9+	c #8EBB01",
"0+	c #90BC00",
"a+	c #95C601",
"b+	c #93C701",
"c+	c #9AC900",
"d+	c #A2D000",
"e+	c #91C000",
"f+	c #A0C801",
"g+	c #8DB400",
"h+	c #8DB301",
"i+	c #93BA01",
"j+	c #9AC901",
"k+	c #AAD201",
"l+	c #9BC601",
"m+	c #9EC700",
"n+	c #97C001",
"o+	c #8EB401",
"p+	c #90B701",
"q+	c #93BB00",
"r+	c #92B801",
"s+	c #98C601",
"t+	c #90B800",
"u+	c #AAD101",
"v+	c #96BC01",
"w+	c #9BCC00",
"x+	c #9BCA01",
"y+	c #90B801",
"z+	c #94BB00",
"A+	c #A1CB01",
"B+	c #99C401",
"C+	c #96C001",
"D+	c #A0C900",
"E+	c #8CB200",
"F+	c #9EC900",
"G+	c #8FB700",
"H+	c #A0CC01",
"I+	c #97C101",
"J+	c #9CC401",
"K+	c #8DB201",
"L+	c #8DB300",
"M+	c #96C901",
"N+	c #A8D200",
"O+	c #8BAF01",
"P+	c #8AAC00",
"Q+	c #8BAB00",
"R+	c #8BAD00",
"S+	c #8CB401",
"T+	c #95BC01",
"U+	c #92BA01",
"V+	c #8FBE01",
"W+	c #94C200",
"X+	c #A2CF01",
"Y+	c #9DCA00",
"Z+	c #92BE00",
"`+	c #8BB000",
" @	c #8BAE01",
".@	c #8BAD01",
"+@	c #96C501",
"@@	c #92BE01",
"#@	c #99CA01",
"$@	c #95C300",
"%@	c #9AC701",
"&@	c #91C001",
"*@	c #92C200",
"=@	c #93C001",
"-@	c #9FC901",
";@	c #A2CB01",
">@	c #95C201",
",@	c #98C101",
"'@	c #9CC700",
")@	c #8EBC01",
"!@	c #9FCD00",
"~@	c #95C400",
"{@	c #91B700",
"]@	c #99CB00",
"^@	c #95C100",
"/@	c #98C500",
"(@	c #98C901",
"_@	c #95C401",
":@	c #ABD401",
"<@	c #90BD01",
"[@	c #8CB400",
"}@	c #94C201",
"|@	c #A7CC01",
"1@	c #92BF01",
"2@	c #96C100",
"3@	c #98CA01",
"4@	c #92C301",
"5@	c #93C401",
"6@	c #96C000",
"7@	c #9BC900",
"8@	c #A0CD01",
"9@	c #9DC701",
"0@	c #8EB501",
"a@	c #91C201",
"b@	c #9DCA01",
"c@	c #9DCC01",
"d@	c #8EBA01",
"e@	c #97C201",
"f@	c #90C301",
"g@	c #A1CC01",
"h@	c #91BC00",
"i@	c #8CB100",
"j@	c #8CB101",
"k@	c #A5D001",
"l@	c #A3CF01",
"m@	c #97C601",
"n@	c #97C600",
"o@	c #94BD00",
"p@	c #96C200",
"q@	c #A3CE00",
"r@	c #9DCD00",
"s@	c #97C400",
"t@	c #9FCE01",
"u@	c #A8D101",
"v@	c #A5D200",
"w@	c #A5CF01",
"x@	c #A3D100",
"y@	c #9ECE00",
"z@	c #9ECB00",
"A@	c #9DCB01",
"B@	c #A7CE01",
"C@	c #94BE00",
"D@	c #9DC501",
"E@	c #9FC401",
"F@	c #91BB01",
"G@	c #9CC501",
"H@	c #92BC01",
"I@	c #8DB101",
"J@	c #98C301",
"K@	c #98C300",
"L@	c #90C001",
"M@	c #8FBD01",
"N@	c #9CC901",
"O@	c #91BF01",
"P@	c #93BA00",
"Q@	c #98C600",
"R@	c #9BC801",
"S@	c #94C401",
"T@	c #99C300",
"U@	c #9FCC01",
"V@	c #94C301",
"W@	c #8FBC01",
"X@	c #98C401",
"Y@	c #98C201",
"Z@	c #A1CD00",
"`@	c #A2CB00",
" #	c #8FBA00",
".#	c #98C501",
"+#	c #90BA01",
"@#	c #90BB00",
"##	c #97C000",
"$#	c #9FCB00",
"%#	c #90BB01",
"&#	c #AAD001",
"*#	c #98C700",
"=#	c #9CC500",
"-#	c #93BF01",
";#	c #8EBE01",
">#	c #93BC01",
",#	c #A2CA01",
"'#	c #ACD500",
")#	c #A5D000",
"!#	c #96C101",
"~#	c #9FCD01",
"{#	c #A0CF00",
"]#	c #A7D200",
"^#	c #A5D100",
"/#	c #8FB401",
"(#	c #8EB901",
"_#	c #93BE00",
":#	c #A4CD01",
"<#	c #AED501",
"[#	c #A3CB01",
"}#	c #A0CB00",
"|#	c #8EB701",
"1#	c #8EBF01",
"2#	c #99C700",
"3#	c #A3D000",
"4#	c #9DC900",
"5#	c #93BB01",
"6#	c #8FBB00",
"7#	c #94C001",
"8#	c #9CC301",
"9#	c #9BC201",
"0#	c #97BD01",
"a#	c #94BD01",
"b#	c #99C001",
"c#	c #95B900",
"d#	c #90B901",
"e#	c #A4D000",
"f#	c #92BB00",
"g#	c #95BB01",
"h#	c #9EC901",
"i#	c #95BD01",
"j#	c #96C401",
"k#	c #A8D301",
"l#	c #A0C901",
"m#	c #A1CB00",
"n#	c #9CCC01",
"o#	c #9ECD01",
"p#	c #AED600",
"q#	c #A1C700",
"  . + @ # $ + % & * * = - ; * = > , , ' ) ) ) ) ) ) ) ) ! ~ { ' ] ^ / ) ) ) ) ) ) ) { * ( , { ' _ { : < [ . / } } ! ) ) + * { | ",
"1 ) 2 , 3 4 ) ) ) + , & : { * ! , , & + ) ) ) ) ) ) ) ) & } 5 6 7 8 4 ) ) ) ) ) ) ) + * } + 2 : 9 , : 0 a b c d e ) ) ) ) ) f e ",
"1 ) , , { g h ) ) ) & ! 2 , { ) , + i ) ) ) + ) ) ) ) ! { { } : j k l + ) ) ) ) ) ) ) & 2 ) ! + & * : m * n o p q ) ) ) ) ) ) ) ",
"1 ) } } } r s t ) ) ) ) u { u ! ) ) ) ) ) u v w ; u ) ) ) ) e x f e y z A g B 4 ) ) ) ) ) . e ) + } ) n , { * C l ) ) ) ) ) ) ) ",
"1 ) { * * * n 4 ) ) ) ) ) . ) ) ) ) ) ! 8 % D E F G e ) ) ) ) ) ) e ' H , I J f ) ) ) ) e K g ) ) ) ) { * * L r . ) ) ) ) ) ) ) ",
"M ) ) & { N O P ) ) ) f l $ Q / e u + ( [ R , , n S f ) ) ) ) ) ) = , } T U E V W ) ) ) e X ( ) ) ) ) ! Y } 8 f ) ) ) ) e e f + ",
"$ e e ) e T S Q ) ) ) Q Z `  .` 4 { , = , , ..+.@.#.$.) ) ) ) ) ) = , , %.{ G &.*.) ) ) . @.} ) ) ) ) ) ) f e ) ) ) ) 6   =.9 -.",
";.>.,.s './ ).. ) ) ) ) ) ) e !.l = ! ! } { ~.{.= ] f ) ) ) ) ) ) u , , = e ].Z s 4 G > : ( } ! ) ) f / l $ Q / ) ) , | ^./.R (.",
", _.:.<.4 . . e . . . ) ) ) ) f . ) , * , } } & [.}.s |.Z Z ` 1.2.<.. { , , = ! ) . 3.4.5.= ! ) e 6.7.7.7.7.7.8.) ! { ~ & , * , ",
"u 9.9 |.1. . .7.7.7.!.{ * , { ! ) ) = , > 0.) + a.b.) l c.6.6.c.!.. } = R * * d.) ) e.z n , { u ) |.7.7.7.7.Z 4 ) ) e e + & + + ",
") f.g./ s h.6.h.s $ ) ) n L * , ( ) ) ) ) . + b.i.$ ) ) ) ) ) ) ) . { , j.k.+.l.) . q m.n.u + . ) ) . 4 / e o.4 ) + p.q.r.4 ) ) ",
"L C 8 ) ) ) ) ) . ! & } = r.s.t.u.) ) ) ) ) ) ) . f ) e . + ).e ) e v.@ : !.q w.) ) ) ) . s x.) ) ) ) K f ) ' :.u , & : y.4 ) } ",
"z.4 = & ) ) = * + n , { * 2 A.H B./ ) ) ) ) ) 4 C.D.X E.& @ w.H ) ) . F.G.'.) 4 ) e e ) ) H.I.y ) ) ) p J.+ * *.} * * V $.+ & K.",
"L.+ * * , ) & * { q.* R G ; 5.M.j.f ) ) ) ) f N.{.O., A., + b q.) ) ) . P.. ) ) 4 Q.R.& w 3 S.} ) ) u ! T.U.* & , * n V.f ) = n ",
"W.{ * ; * & & * * |.X.L } Y.0.9 c.e ) ) ) ) f R = , ! } = * G Z.`.f ) ) ) ) ) ) e 4  +.+S.++* } ) ) ) ) Y + { ~ ) ! > @+l ) ) ) ",
"#+> > d., o.% $+`.8 l =.; %+,.&+i ) ) ) ) ) . , } ! ) ) ~ * *+H $ f . f f . ) l =+; g n.-+;+* } ) ) . 4 >+z.l 8 4 f f . e ) ) ) ",
",+'+s.h * g.% )+!+~+) / ,.0 Z.{+-+) . ]+) ) ) u ) ) ) u ^+Q . e i c. . .Z 4 f /+(+' * * , s.$+w h. .7.7.7.7.7.7.7.7.7.Z l ) ) ) ",
"1 &+_+:+'+t w <+:./ ) ) e K T.{ : g m ;+y ) [+) ) 4 e r.}+s f . e l <.|.h.|.4 w X.|+R * * , u <. .7.7.7.7.7.7.7.7.7.7.Z w u ) ) ",
"1 Q 1+2+3+. f #.<.) ) ) ) i g @ * , ) * ( r.4++ & >+Z s.+ 5+@., T.6+J 7.7.7.].7++.: & } , { ) ) ) i ) 4 8+9+0+a+, 2 ) n R * n %.",
"b+) A f e . e f e e f 4 . . c+g * { = $+! L + & ) d+A.e+} A , : f+H.7.7.7.7.g+e ) } u ) ) ) ) ) ) e Z 7.h+i+j+R } ~ { , , ] >.k+",
", ! , u + ( r.l+7.7.7.7.7./ g > ' ) + { u , ) ) j.m+S.( { ! * : H y.n+o+7.7.Q ) ) ) ) ) ) ) ) ) ) <.7.7.7.p+q+r+`.* { + } o.b 6 ",
"T } * u * * s+t+7.7.7.7.7.h.<.) e $ Q t A ~ ) ) g u+V R , { , + R : F.H.7.s ) ) ) ) ) & = ) n R r.q 7.7.7.7.J v+w+, U.Q , 0+e+r.",
"u x+' %+{., R [.y+7.7.7.H.z+A+f t B+4.I ).e ) ) ) > , * * } = , , C+6+ .|.!.$ Q t / & * * , g {.D+A 6.7.J H.E+[ q.t  .3+{ n <.) ",
") & F+h+G+H+k I+J+K+J 7.L+[+s.u &+' j.@ R.. ) ) ) ) ! = = ) ) ! f l 4 i Q ].7.2.s n.M+R * * : c+N+  f O+P+Q+R+J 2.<.4 M.s.) ) ) ",
"{ & . c.S+g+T+U+g+`.w.8.V+L * W+%.* 0.* s.. ) ) ) ) ) ) . A u ) ) + ) { ) ) ) ) ) * * X+{.o.Y+o Z+f c.`+ @.@`+$ e++@, * ! ) ) ~ ",
"} m ) ) l 1.3 ; {.{ : 4.q R * + & * ' * ~ ) ) . i ) ) e @@p ~ = ) * = %.( ) ) ) ) * #@z.S.t.$@f e ) ) 4 e e f W n %@: } { + 2 R ",
"%@@.) ) $ ).g.U.' g , * n.{ * + ) ~ * { ) ) . 9 a.& } ) &@o., * *@> , =@S.m ) ) e @ -@1.) 9 4 Q i ) ) 4.O f i ) f ;@>@} e+]+N ,@",
"f ) ) ) A m+'@{.} { n { & ) & u ) ) ) ) ) e w {.{ = ) )@!@R { { $ !@} e ~@G ) ) ) S.{@l ) ) ) ) l 1+4 K ]@@+A ) ) A ^@= 4 / . <.",
") ) ) ) ) G * : s.& ) ) e $ <.t |.s h.|.e l /@x ) ) ) q.T.x.(@) e W+! ) ) ) ) ) ) ) 9 ) _@z.4 ) l :@^ a.{ * m ) ) ) f r <@>+) ) ",
", & ) ) ) ) + 2 R * ( ) / 1.7.7.7.[@1.<.) . }@j.= = & & u ) . ) ) . l l $ l ) ) ) & { n L.|@s+) f -+, : } } ! ) ) i 1@2@;.! s.3@",
", } ) ) ) ) ) ) ) ) ) ) ) ) . 4 4 . ) ) ) '.:+K , W * 4@} { n ) ) !.L+h+h+s ) ) ) e } %.5 l.5@. . 4 x } } & ) ) ) s U+' & r.{ , ",
"+ & { ) ) ) ) ) ) ) ) ) ) ) f 6@7@e ) ) ) 4 W+G [ 8@@.9@r S.) ) ) ) 4 / 4 ) ) ) ) & = 9 m } ) Q 0@3 a@& , * , ) ) e b@e [+c@%.%.",
"( = & ) l <.d@s h.Z l ) ) ) x._ ( + ! ) ) ) ) . e@u l u / e ) ) ) f w m = ) ) ) ) e , z.) ) ) ! <+;+{.| * { , ) ) f t f@n , * 5.",
"+ ) ) . !.c. .1.h.<.. ) ) ) 9 , , , * ~ ) ) ) ) ) ) ) e f <.s <.4  +R * * + e ) ) e g@e ) ) ) ) ) $ p+s.m n G ) ) e s+x+#@@.n $ ",
") ) ) ) ) + ) ! { ! . ) ) ) t s h@& } } ) ) ) ) ) ) ) f i@j@j@j@#.w+M+{ * = + { ) ) e ) ) ) ) ) ) z.k@m b.l@u ) ) ) e y & G & ) ",
"1 ) ) ) } , ) , { { ! ~ ) ) u } } ( $+{ ) ) ) ) ) ) e ) f l |.s E.s+c@, n m@* , ) & u u , + ) ) A <.Z Z q 4 A K.n@+ = + ) + ) ) ",
"1 ) g n R n = $+R #@= * } ) ) ) |.o@* = ) ) ) . f @.= & ) ) ) ) j.p@q@] C+r@* m s@, { ! , , ) ) H.j@j@j@j@i@/ F.N.{ 2 & ) ) ) ) ",
"1 + t@n *@) } !@<+y & ;+T.> ; + / c+G . ) ) f |++@- * { & . + { { & ) 8+u@v@> 4 I * { ' -+* > ) J j@j@`+H.|.w w@x@{ 2 = ) ) ) ) ",
"1 ) e !+*@) d.( %.) ) r.V ( ) ) ) ) u 4 j.4 c+).f.+@g ~ N #@y@L.s.%.) l I + ) 4 2@{ & z@A@B@; ) e l $ / e ) ) ) + e +@& ) ) ) ) ",
"w R 7@e 4 ) ) ) ) ) ) ) ) ) ) ) ) & /+K C@( D@A X.E@6 c+F@!+0+G@o.) ) ) ) ) ) e H@  C p.C@$.( ) ) . *@Y.) ) } + } e > ) ) ) } .+",
"Y |+I@/ ) ) ) ) ) ) ) ) ) ) ) ) ! , 2 %.%.* , , ^@w.{.A $ !.<.q D.1.2.S+|.e ) . f i J@( $ i ( & ) e K@R , + , x r.u + ) ) ) @ o.",
"y V.-+8@^.) ) ) ) ) ) ) ) ) ) ) e e . + & & & + L@*@i g+7.7.7.7.7.7.7.6+Q Y * , } u ) ) i 4 M@W &   N@* * 0+L m B+T.) ) ) = , } ",
"{ = O@P@` 4 ) ) ) ) ) ) ) W l ) & {.x.0.4 ) ) u N.&+e / <.8.[@[@2.D.Q 4 ) ) : s.* , ( ) 4 Q@G + ) *.[.( } / R@u A j.) ) ) ! * * ",
"} & q.A e ) ) ) ) ) 8@U.) : G@+ , { ' ,@f e } %.S@. ) ) ) ) ) ) + = ) } { , } W g T@y.) f Z+. ) ) + e m@) ) e e 4 !.!.t / ) u } ",
": * : U@) ) ) ) ) ) g F+U.* V@, * n }+/ ! 2 $@U / ) ) + * , ! ) Y * + h * R r.n W@*@|.e 8 X@{ , * n + = ) ) ) ) Z 7.7.].l ) & & ",
"n Y@Z@`@. ) ) ) ) ) ) Y j.Y & + & y D+/ ) ) ) ) ) ) e , : @ , ) , * &  #s., + ; E Q   ) ~+K@W X.{ .#_@, ) ) ) ) e f A . ) e n * ",
"-+w $ +#i ) e e . ) ) & = ) ! ) ) 9 f ) ) ) ) ) ) ) 9 : > c+$+).s.$+n 4 @#y.R.c.##U.e ) . . l $#  % S ) w $ . A ) } %#) ) ) H 8@",
"&#U.f |.`  . .7.7.!.) ) ) ) . ) u ) ! & + ) ) ) ) ) / `.'+G : ).{.R /@f ) l 2+z n@~.`.) ( 8@f ) ) ) ) K.j d *#=#{ n l+-#) ) ) A.",
";#e l S+7.7.7.7.].4 ) ) ) A.n@* %.! , R , : G ) ) ) f X.[ t.>#4 A.,#1+) ) ) ) g @ , * & %.@ ( g .+) e n } , & n ~ , s.P {.! ) ) ",
"1 ) ) / !.t <.|.Q Q !.4 ^@j+R } & { , * T.N.'#) ) ) { $ ~+<.4 i f <.e ) ) ) ) e W ' * { = , + T.a+) ) , ~ ! ) ! & * , | >+4 ) ) ",
"1 ) ) ) ) ) . |.]. . . .N {.V@j+, { = & n )#!#u ) + { ! , ) %.g s.m ) ) ) ) ) u ~##@, + & } & } ) ) ) ) ) ) ) + ^+8 . e ) ) ) ) ",
"1 ) ) ) ) n + e ) e e ) ) ) 2+{#* ( f ,  #{ V ) + } %.2 { = , R [.+ e Z  . . .|.f ) ) . A f = = ) ) ) ) ) ).4 g o.<.) u + @.e ) ",
") ! , , ~ & w+]#q.) ) ) ) $ s@, } A c.{ x Z ( ) -+^#+ : { = * * S.h ) f !.t s /#$.e $ U+q %+f ) ) ) ) ) . s.(#H ~ <.} * !+,.e ) ",
") = * * , g *.A.. e <.Z c.. e e ) ) M.{ & 4 e ) R %.) T.; e T.{ @ ~#4 ) ) ) s -.{+. _#V U.u.l ) ) ) ) ) f :#L >+{ ) * ]@,@A . ) ",
"2 : g , * * -+<#[ S+j@j@j@<.) ) . ) d > ) ) ) u ) ) ) G G ) m )#W+!+F.q . ) R.L r.<.G s.h L &+) ) ) ) ) g [#U@: , & , & R #@B e+",
", * X+G 5.r.}#U . e / <.|.l l z.L., * ! ) ) & { & ) ) ) ) ) i ) C+|#K.Y+,.f _+* s.1#* s.n * % ) ) ) ) ) e g , * * & + $+, 2#A ) ",
"* R *@3#4#l f e ) ) ) ) ) !.5#_.}+R { } + & , } } ) ) ) ) ) $ Q *#V 9 $+@ h@Y.* , e , : ; * + ) ) ) ) ) ) ) ) 8 6#|.4 e e ) ) ) ",
"R Z@8.! n.7#|.e ) ) ) ) f 7.7.7.8#G & % *#n Y@`.O.) ) ) ) ) . *@1+* [+{ * g 8 * * ) + * * , ) ) ) ) ) ) ) ) ) s j@j@<.) ) ) ) ) ",
"l@9#c.) e $ |.D.c.h.c.l 4 7.7.6+0#a#n ].b#0@c#Z+e ) ) ) ) ) @#d#% >+, R { , + 2 , ) ) ! & ) ) ) ) ) ) ) ) ) ) e 4 f 4 4 e ) ) ) ",
"F ` f ) e c.7.[@7.7.7.h+$ c.7.7.J U+|#7.7.L+c.l l . ) ) ) u %.<+7@`.%.~ } ! ) e ) ) ) ) ) e . ) ) ) 4 Q t |.Q ) . 6+j@`+t ) ) ) ",
"1 e ) ) ) ) e 4 l l l / ) e <.].7.7.7.L+Z $ ) !.q / ) ) ) n e { * * ' = ) ) ) ) ) ) ) ) l e#t f 4 ) $ 7.7.2.$ ) e l $ 4 . r.e@f ",
"A ) ) ) ) ) ) ) ) ) / ` s ) ) e 4 / / f ) ) ) ) ) ) ) ) ) r@. ) & , * , + ) ) ) ) ) j.| f#-+2+h |.) ) e e e ) ) R@g#W h#7#T.i#|+",
"e ) ) ) ) ) ) ) G r.& A e + u {.) %.Z@e ) ) ) ) ) ) ) ) & j#f ) ) ) ) ) ) ) ) ) ) e k#l#m#* + @  #) ) A w . ) {.n 9@n#I , } s.i.",
")#O.) %.%.) %.!+`.o#^#) G )#k@n + 8@g X++ ) ) ) ) ) ) ! 2 | } G r.f ) ) ) ) ) ) ) W L 3#)#$+} : 2@) !+p#q#. ) ' & R ! & & , : V "};
