/* XPM */
static char *player_xpm[] = {
"8 8 2 1",
". c #e74c3c",
"# c #c0392b",
"........",
"...##...",
"..#..#..",
"..####..",
"..#..#..",
"..#..#..",
"...##...",
"........"};