/* XPM */
static char *_0a5760307154415806dbe8d8d42f56aybtn279M4RmBu1pq[] = {
/* columns rows colors chars-per-pixel */
"64 64 197 2 ",
"   c None",
".  c #2A0500",
"X  c #2F190E",
"o  c #351A08",
"O  c #371905",
"+  c #341B13",
"@  c #3D1D10",
"#  c #431D00",
"$  c #402011",
"%  c #4A2B16",
"&  c #522F19",
"*  c #5C3410",
"=  c #613915",
"-  c #573D23",
";  c #5B4832",
":  c #674425",
">  c #6D4522",
",  c #6D4823",
"<  c #63462A",
"1  c #6C4A2C",
"2  c #724622",
"3  c #734B25",
"4  c #754D2A",
"5  c #794E2A",
"6  c #784E26",
"7  c #76512D",
"8  c #7B522D",
"9  c #714E30",
"0  c #765434",
"q  c #7D5531",
"w  c #7E5A35",
"e  c #7C5A3A",
"r  c #615444",
"t  c #785D40",
"y  c #7A644C",
"u  c #7C6958",
"i  c #81552D",
"p  c #8B5B2F",
"a  c #875B2C",
"s  c #815532",
"d  c #835B35",
"f  c #895E34",
"g  c #845D39",
"h  c #8A5E3A",
"j  c #925F32",
"k  c #8C6136",
"l  c #87613B",
"z  c #8C633C",
"x  c #8E693D",
"c  c #926333",
"v  c #92653D",
"b  c #9A673A",
"n  c #956A3E",
"m  c #9B6B3D",
"M  c #A16C3D",
"N  c #825F40",
"B  c #846547",
"V  c #8D6541",
"C  c #8E6943",
"Z  c #876A4E",
"A  c #8D6C4C",
"S  c #83674F",
"D  c #926642",
"F  c #956B44",
"G  c #9A6D45",
"H  c #946E4A",
"J  c #9A6E49",
"K  c #986641",
"L  c #8E704C",
"P  c #967046",
"I  c #9B7146",
"U  c #95714B",
"Y  c #9B724B",
"T  c #9F794C",
"R  c #866C54",
"E  c #8B6E53",
"W  c #846F5A",
"Q  c #926F52",
"!  c #8C7154",
"~  c #8D735A",
"^  c #937252",
"/  c #9C7552",
"(  c #9E7853",
")  c #93755A",
"_  c #99765A",
"`  c #957A5D",
"'  c #9C7B5B",
"]  c #A16D43",
"[  c #A27144",
"{  c #A1734B",
"}  c #A1784A",
"|  c #A07650",
" . c #A37B54",
".. c #A27D5E",
"X. c #8D7762",
"o. c #937A62",
"O. c #9B7D62",
"+. c #997E6C",
"@. c #A07F60",
"#. c #A78057",
"$. c #A3815C",
"%. c #AB865B",
"&. c #B28D5F",
"*. c #9D8265",
"=. c #97816D",
"-. c #9B836C",
";. c #9C8A73",
":. c #9C8B79",
">. c #A28264",
",. c #AC8B65",
"<. c #A3846B",
"1. c #A68B6E",
"2. c #AA8B6D",
"3. c #A88569",
"4. c #B18C6E",
"5. c #B68C64",
"6. c #AE906E",
"7. c #B7916B",
"8. c #BE946C",
"9. c #A28671",
"0. c #A38D74",
"q. c #AC8D73",
"w. c #AB8F7A",
"e. c #AC9276",
"r. c #A2927C",
"t. c #AB937C",
"y. c #A59075",
"u. c #B19476",
"i. c #BF9F76",
"p. c #B4957D",
"a. c #BC9E7E",
"s. c #B89977",
"d. c #BDA37A",
"f. c #C29D74",
"g. c #C29D7D",
"h. c #C5A375",
"j. c #C9A276",
"k. c #C5A47C",
"l. c #CAA57C",
"z. c #C5A97B",
"x. c #CBAA7C",
"c. c #A88C80",
"v. c #A39585",
"b. c #AB9C8A",
"n. c #A19589",
"m. c #B49B82",
"M. c #B19D8B",
"N. c #BB9F89",
"B. c #B69F93",
"V. c #BDA283",
"C. c #B6A18D",
"Z. c #BCA28C",
"A. c #B5A797",
"S. c #BAA695",
"D. c #BFA997",
"F. c #BEB4A5",
"G. c #C4A583",
"H. c #C9A682",
"J. c #C5A984",
"K. c #CAAA83",
"L. c #C1A689",
"P. c #C6AA8B",
"I. c #CAAB8B",
"U. c #D4AB83",
"Y. c #D0AB8E",
"T. c #CEB28A",
"R. c #C1A694",
"E. c #C4AC94",
"W. c #C2AD9A",
"Q. c #CAAE98",
"!. c #CBB399",
"~. c #C0B09D",
"^. c #D5B698",
"/. c #C5B3A2",
"(. c #CEB6A2",
"). c #C2B3AD",
"_. c #C5BBAD",
"`. c #CBBAAA",
"'. c #CEB8A3",
"]. c #D3BCA5",
"[. c #D8BDAA",
"{. c #D5B8A4",
"}. c #C7BFB6",
"|. c #DFC9AD",
" X c #D3C0AF",
".X c #D6C6BA",
"XX c #D8C4B3",
"oX c #EBC9AE",
"OX c #E5CFBA",
"+X c #E9D2BC",
"@X c #DBCEC3",
"#X c #DBD1CD",
"$X c #D2D2CB",
"%X c #E2D4CB",
"&X c #E6D4C6",
"*X c #E3D8D8",
"=X c #F0E0C8",
/* pixels */
"                                                                                                                                ",
"                                                                                                                                ",
"                                                                                                                                ",
"                                                                                                                                ",
"                                                                                                                                ",
"                                (.p.) R E ~ -.t.    /.                            ).).                                          ",
"                        ;.R ~ ^ ^ H U U U H A Q ^ O.R E t.            E.m.y.~ E *.~ E ` m.                                      ",
"                        ! L / D G I J G G J Y P H H H H ^ A ' @.U A $.U H C l w w C U U A / ' ^ -.`.                            ",
"                  ~ ! L U I I G G G G G G G G K K F G G P P J H U H H H V 4 5 8 4 4 q F / H C ^ ^ ~ 9.            /.'.          ",
"                E A U U I G m m f k v F G G K v G G G G I I G G F H / D 3 s F H J h 5 s D H h q e A A *.].    m.! E S o./.      ",
"          -.Z B ^ U U J G ] M ] v D D H Y Y Y I F F F G Y Y G J F F F 8 q J T J F J z 8 2 > 4 q 5 3 0 N ` u.>.A H / H E o.      ",
"          ` H U H H J F K G ] G P U U U U U J F G G I I I F z f V F F , F P F J P P D l z F F H G z V H U H F U G v U H R M.    ",
"        e.U P n F G P J G G G K H U U U U F z l l z F P Y P U H U J D > F J D P z F J J J J H T I I D F H U Y v I G G U ) :.    ",
"      C.^ U F G G G G F F G G F J I U I P J F n G I Y P I J J H T J C 8 8 J P v P G F P / T J F G G G U U V I G m [ n H R b.    ",
"      [._ T m G m n v l l x F F G m n n n m I I G G I I I P P P v G Y z 2 d G G n F n G Y Y P Y G Y T H P G I m M [ G U O.      ",
"    W.) A D { b G G n x x P P F F m G G G G [ I G G I Y Y I G J P Y J g i i G G G G G G J J G J Y G T z F G G m m [ n U !.      ",
"   XO.C P Y F G G I I I F n F G F G G G G G I G G I Y Y J G G J H H d 4 g F I G G G G G F G T F I I H D D J ] [ I n n  .^.      ",
"  2.C F F F G G J J I I I G G G F F F G G J G F G G G G F F G J U w 8 l J J F G G F G G Y Y P Y I I P D n G G G v P I z ' |.    ",
"L.E U T T G F J J G G I I G G G Y G F F F J Y Y G G F G F F F J V 3 d H P P G I Y G I v Y G F Y Y Y T D v G G I Y P I P ^ <.    ",
"{._ H D Y Y F F J G F F F F G G G F v z v F G G G G G G F z v J l , z U J P G I G G I F Y G T T G P P z h F G G U H J F H E     ",
"oXA F P n n { G F G I I I G G J F D v v F F F F F G G F v z v F z > g U G G F G F G J J J D / D J J H z k F G J H H Y J J _     ",
"a.A U Y G n K G v F I I I I G J G F F F G G G G G G G F v v F G q 7 V P F G G K G G G G D F U H Y J F l k n F U U H D { Y H y.  ",
"2.( J x I I v h D F G I I I J J G F D F F F G G G G G F F G G F > g Y J v F G F G K F G P T d F J F J v v I F H Q N H J ] P ^ |.",
">.H J I G n K F J J G I I I Y J F F G J J G G G F G G F G Y G z 4 z F P Y F F G G F G G J l # * F G #.&.&.%.Y H : . s J G G U 2.",
"  / P I G n n G F G G I I Y Y J J G G G Y G F F G F G G G Y G f 8 F F D Y I F F n F Y P U l # = T 8.j.l.h.h.f.$.0 O h n [ G C ,.",
"  ^ F n n G K F J J I I I G J G Y J G G G G G G F F G G F G F d 4 z Y J F v F G Y G J F J U F U 5.j.l.x.l.h.x.z.' ^ D I m m F T.",
"  ^ H F n G G F F G G F F F G F F J Y G F G G J F F G G F G F l > 3 C D D F G G G G Y G P U U  .j.l.z.x.x.h.k.G.s.^ | m b G C a.",
"  ^ U U G F F D F F F F F F F D z G Y Y G Y Y G F G Y J G J G F g 3 F J P F G F G K G G J Y F f.l.x.l.k.H.H.G.J.V.6.J n G G A m.",
"  _ H U Y G D z J J J F F F D h v G Y Y Y Y G F z F J G G G G P F 7 F U Y D F G I K G I J P  .U.l.x.H.G.k.G.G.P.L.G.%.I G H ) |.",
"  >.H F F v z V J J J F I I F z G J Y J G J G D v G J G G G G P z , 8 g J F F G G K Y Y G D 8.f.x.h.J.I.I.P.G.L.L.V.l. .F U 9.  ",
"  <._ H D z D H J J G G I I J F J J J J J G G G G Y J G Y G F J F w 4 q J G n v G G G F F { U.j.x.i.J.V.2.<.O.O.` G.f.8.P Q D.  ",
"  <.U D J P J H J P P G F G G G G G G Y Y P Y Y J Y G F Y Y F J H H g d F J J G F I G F Y 5.f.l.j.k.G.! % O o o o - k.l./ E     ",
"  ' P G K G H H F P { G F I F G G J J U U U Y G I F G G I F T z l H C 7 V H U D F z J ( J 8.l.j.j.l.G.! o X + + @ & H.H.*.0.    ",
"  ) F m K J H C F J F J I I F G G P P P U U Y G F G G G G G P z C U D 3 8 8 V U H U H H T f.l.l.l.f.I.e.- + + + $ Q k.J.t.      ",
"  ) G m K F V 4 z Y G Y F F G G n F G G J P G G n G F F F J H D H T J d 8 3 q V V U H H ( f.l.k.H.H.J.J.s.` y ~ p.I.J.L.=X      ",
"  ) F m G J F 7 8 P D F v I Y v z v F F G G G G G G v F f l F U x P P / U V 5 3 > 4 z U H 7.l.H.H.g.k.z.z.d.d.P.G.V.L.!.        ",
"  q.Y G K D F q 3 G J U D F J v v n K G G G G K G n F F 6 8 F F T Y D J J P D z D 8 5 q d / 7.k.g.G.k.z.z.h.d.V.P.C.].          ",
"  -.F K G J / H 3 f V H J z J J K G G G G G m n k v P F 3 q U F D P G T J Y F D H H V q 3 > d ,.g.Y.l.h.z.z.G.E.'.&X            ",
"  =.H K G F H F d 2 2 5 F J J G J G G G G G n v z F Y J g q V J D F F G F F F F J J F D U H g V H U  .$.H P.                    ",
"  +.U F D F H U P z h 4 d d F U H H J G G G K v I Y U U F 3 8 D J z k v F G J F F D F h g F U J F Y H H Q [.                    ",
"  B.A G D / U H I F J g 3 3 5 g U H U H G I G I J / U U H l 3 H G z f v G G F G F Y J z 5 H H J p n T Q +.                      ",
"    >.P F g F J F v J G D C q 7 9 N H V F { Y G H H _ ^ A ^ 4 g H v v n G G G Y G J J V 4 D F D c c D _ c.                      ",
"    ^ z J h H F I F G G J F F C e < 4 V D i 8 F ' ^ O.0.) E B _ U P J G G G G F F v J D 4 z H F m n H 9.                        ",
"    _ H F z F U n G G J D F U H 1 1 1 , 3 5 3 3 1 ^.    +XOX+Xe.H G G F G I I F D h F D 4 g U P n } ^ Q.                        ",
"    ` P F F F P n G K J J U H g 1 1 q C G v g V Z ].          W.^ P P J F G I I F k J F 8 8 H P F U )                           ",
"    _ F J J P F I m F F J U V 4 : 7 V G I J F A ~  X            ^ J J G G F F I F z J D d 3 V H U A W.                          ",
"    1.T F D J I n k G Y P F q > q z Y G K G H Q ~ .X            1.T D D J F F I F v F v z 3 g U ^ t.                            ",
"    <.U D J F F n a z H U A 4 > C C G F m I H ^ t.                I.' H J G G G G I I F J 3 q A ~                               ",
"    ' P J J F P m k F ! 0.  2.7 H H z f m m P ^ t.                  -.Q H G p b m K Y T F 3 d E ~.                              ",
"    >.F P P H J m m U ~ _.    Z Q H D f n n D A -.                  S.o.H n j c m G H U U D V q.                                ",
"    q.D J F F F m { H X.      Z._ J J n G F H Q R.                    !.^ / G p n P H U H ( U                                   ",
"    p.H J n v G m G _         XX_ J v K G z U A E.                    W.E U F G F P U / H U /                                   ",
"    p.J J K v ] ] G 3.          q.J F G I G P ^ (.                    y Z H J F G J J T U J P Y.                                ",
"    t.Q J J n G b { s.          Q.H Y F G Y C _ E.                  v.; t U / G G P P P P G Y ..                                ",
"    M.^ H H J G I H ) :.          / A C H U A ! W A.                r ; < e F T G Y T G F Y Y Y ^ ~ =.`.                        ",
"    D.! E A U H / / o.b.$X        C.o.1.1.*.y.;.v.n.#X              F.u R <.>.H / U U U J / D J ^ ! ~ r.                        ",
"      b.M.;.W.0.E.Z.r.F.}.                  @X%X#X*X                          <.E >.Q O.3.Q 4...4.u.-.W..X                      ",
"                                                                                S.D.t.R.Z.w.Z.N.Z.Q.C./._.                      ",
"                                                                                  @X%X  }.    .X    @X                          ",
"                                                                                                                                ",
"                                                                                                                                ",
"                                                                                                                                ",
"                                                                                                                                ",
"                                                                                                                                "
};
