/* XPM */
static char *dbc15b8174ec4ba3edc19fc25e39bc69T4X1GMbENnlqtyBH[] = {
/* columns rows colors chars-per-pixel */
"64 64 179 2 ",
"   c #100B07",
".  c #22180F",
"X  c #261B11",
"o  c #2C1D16",
"O  c #2E1E18",
"+  c #37261D",
"@  c #39291F",
"#  c #4F3C2E",
"$  c #533B25",
"%  c #503D2F",
"&  c #75711D",
"*  c #797A1C",
"=  c #5B4636",
"-  c #65472B",
";  c #67482C",
":  c #6B4B2E",
">  c #714E2F",
",  c #6F5C26",
"<  c #6E512F",
"1  c #715F25",
"2  c #6F4E30",
"3  c #704F30",
"4  c #745233",
"5  c #7A5636",
"6  c #7D5937",
"7  c #705539",
"8  c #7E5B39",
"9  c #805A37",
"0  c #845E3A",
"q  c #86603B",
"w  c #8B633E",
"e  c #91663F",
"r  c #946F3B",
"t  c #967737",
"y  c #977F36",
"u  c #97763C",
"i  c #98763E",
"p  c #97793A",
"a  c #997B3C",
"s  c #8E6640",
"d  c #8F6841",
"f  c #81674F",
"g  c #916740",
"h  c #966A42",
"j  c #996E45",
"k  c #9B7146",
"l  c #9C7841",
"z  c #97704A",
"x  c #9D7148",
"c  c #866C53",
"v  c #8F7359",
"b  c #9F7751",
"n  c #94765A",
"m  c #A1774F",
"M  c #A2784F",
"N  c #A07751",
"B  c #A47B54",
"V  c #A87E56",
"C  c #A37E5C",
"Z  c #9C7E61",
"A  c #828B19",
"S  c #889519",
"D  c #92961D",
"F  c #939C1D",
"G  c #8FA70E",
"H  c #8EAB0B",
"J  c #91AC0E",
"K  c #8DB401",
"L  c #8EBC00",
"P  c #8FB509",
"I  c #90B507",
"U  c #92BD02",
"Y  c #93B40C",
"T  c #92BA09",
"R  c #92A415",
"E  c #93AB13",
"W  c #9AAE13",
"Q  c #93A31A",
"!  c #99A41B",
"~  c #97A819",
"^  c #9AAA19",
"/  c #94B212",
"(  c #9AB211",
")  c #94BD13",
"_  c #9EBE1E",
"`  c #A1BB0D",
"'  c #A0A61D",
"]  c #A1B116",
"[  c #95842F",
"{  c #968D2B",
"}  c #9A8D2D",
"|  c #959525",
" . c #9A9625",
".. c #959923",
"X. c #9B9A24",
"o. c #959228",
"O. c #9B952A",
"+. c #968233",
"@. c #978631",
"#. c #998335",
"$. c #9A8B30",
"%. c #9A8139",
"&. c #9C9038",
"*. c #9BBC25",
"=. c #9CB728",
"-. c #9CBB29",
";. c #9DA638",
":. c #9CB630",
">. c #A4B534",
",. c #AEB73E",
"<. c #A0BB39",
"1. c #8EC200",
"2. c #93C100",
"3. c #95C201",
"4. c #91C400",
"5. c #93C500",
"6. c #93C600",
"7. c #93C700",
"8. c #9AC501",
"9. c #9AC601",
"0. c #95C800",
"q. c #9BCA00",
"w. c #9ACB01",
"e. c #9DCA01",
"r. c #93C20A",
"t. c #98C709",
"y. c #9FC80D",
"u. c #94C014",
"i. c #A1C700",
"p. c #A2CD01",
"a. c #A2CE01",
"s. c #A5D000",
"d. c #AAD301",
"f. c #9D8B41",
"g. c #A09E45",
"h. c #A08151",
"j. c #AD855C",
"k. c #AB8A5D",
"l. c #A49550",
"z. c #A4BB44",
"x. c #A4B84A",
"c. c #A8B657",
"v. c #9F8163",
"b. c #A78462",
"n. c #A78A63",
"m. c #A8876A",
"M. c #AA8A6E",
"N. c #B28B63",
"B. c #B68F68",
"V. c #AC996B",
"C. c #B79068",
"Z. c #B9936B",
"A. c #AD8E73",
"S. c #AD9076",
"D. c #B59571",
"F. c #BC9973",
"G. c #B1957C",
"H. c #AEB767",
"J. c #AEB860",
"K. c #AEB46A",
"L. c #B0B66B",
"P. c #B0A075",
"I. c #B1A978",
"U. c #C39E76",
"Y. c #C0AE64",
"T. c #C0AB6B",
"R. c #C5A475",
"E. c #C6A27B",
"W. c #C8A57E",
"Q. c #B49C84",
"!. c #B9A68D",
"~. c #B9AA8F",
"^. c #B6B284",
"/. c #B9A591",
"(. c #BCA895",
"). c #BEAB9D",
"_. c #CAA780",
"`. c #CBA881",
"'. c #C0AFA1",
/* pixels */
"L 1.6.w.3.L 6.6.6.0.0.6.w.w.0.6.w.0.0.w.1.1.1.1.1.1.1.1.6.6.6.w.w.e.L 1.1.1.1.1.1.1.6.0.6.0.6.w.3.6.0.e.U 1.L 6.6.6.1.1.6.0.6.3.",
"1.1.6.0.U 1.1.1.1.6.0.6.0.6.0.6.0.0.6.6.1.1.1.1.1.1.1.1.6.6.6.9.9.L 1.1.1.1.1.1.1.1.6.0.6.6.6.0.2.0.0.w.6.p.d.L 1.1.1.1.1.1.1.1.",
"1.1.0.0.6.0.6.1.1.1.6.6.6.0.6.1.0.6.1.1.1.1.6.1.1.1.1.6.6.6.6.0.p.w.L 6.1.1.1.1.1.1.1.6.6.1.6.6.6.0.0.6.0.6.w.p.L 1.1.1.1.1.1.1.",
"1.1.6.6.6.U L L 1.1.1.1.2.6.2.6.1.1.1.1.1.2.w.1.w.2.1.1.1.1.1.2.1.1.w.p.1.0.w.1.1.1.1.1.1.1.1.1.6.6.1.6.0.6.0.9.L 1.1.1.1.1.1.1.",
"1.1.6.0.0.0.6.1.1.1.1.1.1.1.1.1.1.E F Q R Y T 9.6.6.1.1.1.1.1.1.1.1.w.2.0.9.K 1.1.1.1.1.1.6.0.1.1.1.1.6.0.0.w.U 1.1.1.1.1.1.1.1.",
"L 1.1.6.6.6.e.2.1.1.1.1.L Y Q F F @.j j h h i @.~ ! o.P 1.1.1.1.1.6.0.6.w.Y ( 9.3.o...Y 1.6.6.1.1.1.1.6.0.6.L 1.1.1.1.1.1.1.1.2.",
"L 1.1.1.1.w.3.L 1.1.1.J i j k j j j j k j h j j k k j j +.Q T Y Q Y T { { #.j h t k j k @.R Y ! T 1.1.1.1.1.1.1.1.1.1.9.L 3.2.i.",
"6.9.U L L L L L E | o.{ j j j h j j k k j j j j j h j j j j l i j h p k j h q 9 9 g j j j j i h u ..L L L L L L 1.1.0.3.w.U 0.9.",
"0.9.3.L 1.1.1.E k j j j j j k j j j k k h j j h h j h k x x j j j h j j g 4 2 4 3 : 8 h j j j j j j i R K K K K Y | | E 6.0.0.0.",
"2.2.2.L K H D [ j j j j j j k h q q q h j j j h h j j k j x j j j j j q : 6 h j j q 2 6 h h 0 6 0 s h k D K G +.j j j h | 6.6.6.",
"1.2.U L G i h h j j j j j j j h g h h j k k k j j j k k k j k h g h h 4 8 j j j j j w : : : : 5 4 : 4 g k @.u j j j j j k E 1.1.",
"w.9.L 1.L p h h j j h j k j j j j j k k j k k h h j j j k j w 0 s h g : s j j j j j j q q g g j j h q h h j j j j j j j j { 1.6.",
"U 1.6.E +.k j h j j j j j j j h j k k j j j q 0 q h j x x x j j x k e : w j j h j j h k k j j k j j j j j j j j j j j j j a 2.2.",
"6.6.0.} k k j j h j j j h h j j j k k j j h g j j j j k k j j j k j h 3 6 j h h h j h j x x j j k k j k k j j j j j j j j +.6.6.",
"1.6.6.! k k j j h j w 0 0 g j j h h h j j j j x j j x x x k x k j j j w : 0 h j h h h j x x x x x x k j j j j j j j j x k Q 1.1.",
"1.9.| h h h j j j j g g h h j h h h j j j k x k j x k k x k k h j k k q : 0 j k j j j j k x k j j x x s h j j j j k j k F 1.1.1.",
"1.! k j j j h h j k k j j h j j h j j j j k k j j j k x k j j j j j 0 : 0 h j j j j j j j k k j j j k w g k x x j j j j F 1.1.1.",
"Y l j j j j j j j j j j j j j h h h j j j j k j j j j j j h j j j 0 : q j j j x j j j j j k x x k x x g s k j k j j j j k Q 1.1.",
"{ j j x x x j j j j j j j j j j j j k h h k k j h j j h h h h j w : q j j k j j j j j h j k k x x x j w w j j j x j k k j l Y 6.",
"..k j j k x j j j h j j j j h j j j d q w j j j j j j j h e g j q : 0 j j j j x k j j j j j x x k j k w q j j k x j j j j k W d.",
"~ j j j j j j j j j k k k x j j j w q g j j j h j j j h w 0 w h q ; 0 k j j j j j j j j j j j x k j h q 0 h j j j j j j j k ] 9.",
"} j j j j j j g q h j j k k j j j h h h h j j j j j j h q g j j 6 > h j j h h j j j j j j h h j k j j w q h h j j j j j j j %.9.",
"%.j j j j h w q g j j k x j j j j h h h h h j j j j j j j j j h : 0 j j j h h j j j j j j j g h h j j g w h h h h q h j j j k Q ",
"i j k j j j h h k j j k k j j k j h j j j j j j j j j j j h j w : w h j j h j h j j j j j q . $ h j V N.B.N.x h -   4 h j j j y ",
"/ k j j j j h h h h h k j x x k j j j j k j j j h j j j j j j q 4 h j h j j j h h j k j j q o $ x Z.E.W.E.W.U.B 4 X 8 j k j j y ",
"E j j h h j h h j j j j x k j j j k k j j j j j j h h j j j j 6 4 w j j h j h j j j k j j j j k B.E._._._.W.`.E.B h j h j h h ..",
"^ j j j j h h j j j j j j j j h j x j j k j j j j j j j j j j 0 - : g h h h h j j j x j j k j B W.W.W._._.W.W.W.F.x j j h h h } ",
"Q j j k j j h h h h h h h h h g q j x k j j k j h j j j j j j j q 2 h j h h h j j j j k k k x F._.W.W._.`._.W.E.E.B.j h h h h [ ",
"Y l j j j j g q j j j j j h h 0 w k x x x k x g q j j j j j j j s 4 h j j j h h h j j j j j B E.W.`.`.`._._.W.W.E.E.j.j j j k F ",
"3.a j j j g 0 g k j j j j j g w j j x k k j j w g j j j j j j j w : 4 w j j h h j j j j j j C.W.W.W.`._.W.W.W.W.W.W.E.N k j a 9.",
"3.a j j h w s j k j j j j j j j j j k x k j j j j j k x x j j j h 0 2 6 j h h h j j j j j N E.W.W.W.E.E.D.v.n Z v.F.W.Z.x j { 6.",
"U a j j j j j j j j j j k j j j j j j k x x x x x k k j j j j j h k 0 5 k j j j j j k j j N.E.W.E.E.E.v @ o o o O = E.E.M j E 6.",
"T l j j j j j h j j k k j j j j j j j k k x x j j j j j j x k g q j w 4 g j j j h e h j x F.W.W.W.W.E.c o o o o o # E.W.j.a 3.2.",
"/ k x j h j j h j j k j k x j j j j j x x x j k j h j j j x j q g j h 2 4 4 g j j j j j x U.W.W.W.W.W.F.% o o o + v E.W.k.E 6.L ",
"Q j j j h h h : q k j h j j j j h h j j x x k j h h h j j j j g h k j q : : 5 g w h j j x U.W.W.W.W.W.W.F.n f v D.E.W.W.>.6.6.1.",
"Q h j j j j h 3 5 j h h j j j h q g h h h j k h j j j h 9 q j h j j j j j g 2 : : 4 g j j Z.W.W.E.E.W.W.E.E.E.W.W.E._.T.T 6.1.1.",
"U #.k j j h h 9 3 h h h j j j g q j j j j h j j j h h h 4 5 h j j j j j j k g q s 4 : 4 q z F.E.E.E.W.W.E.E.E.E._.W.T._ 1.1.1.1.",
"U a h j j j h g : q g h h h j h j j j j j j h g q h j h 4 6 j j j j j j j j h e j j w 4 : : 8 n.E.E.W._.W.E.R.R.Y.,.t.6.1.1.1.1.",
"T u h h h j j j 0 : ; 4 g h j j j j j j k j h 0 w j j j 8 4 g j h h h j j j h h j e h h h h g s h m B M x &.) r.6.1.6.6.1.1.1.1.",
"L p j h h h j j j e q : 0 6 h k j h j j j j j g j k k k g 2 4 h j q q h h j j j h h h q 6 j j j h j j j h F 6.6.6.1.w.1.1.1.6.p.",
"6.{ h j j j j j j h h 0 : : : q j j j j j k j j j x j j j q : h j e 0 e h j j h h j j q 2 h j j 0 h j j l T 0.2.w.2.6.1.1.1.w.6.",
"w.Y r j j q h j h h j h h g 6 : 4 q h j j x x j k x x j j g : w h h g h j j j j j j j g : q j h 0 g j j #.U w.6.9.w.1.1.1.6.0.6.",
"6.T r h h 0 h h j j j j j h h h 4 - 4 0 q 0 5 g x k l y k j w h j j j j j j j j h g j s : q j h g h j i ! L w.2.1.2.1.1.1.6.0.0.",
"6.Y k j h q j j j j j j h h h h 3 ; : : 2 2 : : < S L 1.E R E #.j j j j j j j j g q j g 2 q j j j k x X.1.1.1.1.1.L L L L 1.2.6.",
"0./ k j j h j j h j h j j h j 0 : ; 6 g h g 0 q q D 1.6.0.0.6.| j j j j h j j j h q h j 6 4 j k j j k / 1.1.1.1.K K K K L 1.6.6.",
"6.Y k j j j j j j h h j j j w : - 2 h j j j j j j Q 1.0.0.w.0.E k j j h h h j j h w h h 6 : h j j j } 6.1.1.1.1.1.1.1.1.1.1.6.0.",
"e.L #.j h h h j h w h k j j 5 - 4 w j j j j j h k Q 2.0.w.w.0.I a j j j h h j k j h h h g : 8 j j +.T 1.1.L 1.1.1.6.U 1.1.1.2.p.",
"d.U i j h h h j h 0 g j j h : - w j h g j j j x #.T L w.w.6.0.L / O.k j j j j j j j j h h 2 4 j k Q 1.2.p.L 9.e.6.6.9.U 1.1.1.2.",
"L T l k j j j j h w h j +.E * : h h w q h j j j #.L 1.3.U w.U 1.2.` l j j j q w h j x j h 4 5 h  .1.1.6.6.0.6.6.6.0.w.2.6.6.1.1.",
"1.T l k j j j j j j j h ..w.H q j j g 0 h j j j p T 6.L L L 1.1.1.L { j j j w 0 h j k k x g 0 a 3.1.1.0.6.6.1.6.6.0.0.3.2.1.1.1.",
"1.1.+.h j h g j j j j k Y 6.3.} x j h w j h h j { 2.6.6.0.1.6.0.w.6.T | k j h 0 g j x x k k k W 1.1.1.1.1.1.1.6.6.L 1.1.1.1.1.1.",
"1.1.@.j j g q j j k k Q 1.1.U ' j j j j h h h j | 6.6.6.6.6.0.0.w.6.1.A h x j j j j j k j j l Y 1.1.1.1.1.L 1.0.6.L 1.2.6.2.1.1.",
"1.2.#.k k g q j j j p L 1.L 6.T #.h h j j h h j X.s.6.0.6.6.0.0.e.6.K , s j j j j j k k k x k | 1.1.1.1.1.w.L 2.6.L 6.0.e.U 1.1.",
"1.6.#.j j j j k j j @.H L 1.1.1.| j j j j j j j O.T 1.w.w.1.w.6.w.y.* - 5 j x x k x x k j k j i E Y L 1.1.p.w.2.6.1.0.w.9.1.1.1.",
"6.0.$.j j j h j j j k a G L 1.1.R h j h j j j h j f.T 6.6.1.6.s._ I.7 - ; 8 h j j j x k j k k j j j i ..9.i.e.0.0.6.0.6.0.w.w.2.",
"0.0.O.j j h h j b x b Q.;.L L U 3.{ k M.M.C M.m.S.G.K.r.1.1.1.1.T / A , 1 & p j x x k x k x j j j j x n./ 0.0.0.0.6.6.0.0.9.1.1.",
"0.0.E f.Q.h.(.M.P.).n.~.^.) U 9.3.0.T -.H.-.L.>.J.=.<.r.1.1.L L 9.e.2.0.w.U / i k N x B B x m.C A.G.b.).L.6.1.L L L 1.1.1.2.1.1.",
"0.p.K 6.z.=.:.H.) z.=.) <./ K K 9.6.6.6.9.6.9.w.U 1.1.1.1.1.1.2.L 0.w.6.0.0.L W l.(.n.!.).k.!./.V.'.V.g.^.z.1.L K K L 1.2.1.1.1.",
"p.9.L 1.1.L L L L L L L 1.K K K U U 6.K 9.K U U 1.1.1.1.1.1.U U 6.2.0.0.6.0.6.6.t.c.c.*.^.x.*.^.-.x.H.1.r.u.1.1.L 1.1.1.1.1.1.1.",
"6.K 1.1.1.L K K K K K K L L K K K U K K K K L L L 1.1.1.1.2.6.p.w.w.6.6.6.6.1.1.1.1.2.1.6.r.1.6.1.1.1.L L L L 1.1.K K K L 1.1.1.",
"1.1.1.1.1.1.1.1.L L L L 1.1.L K K K K K K L 1.L L L 1.1.1.6.1.6.0.0.w.6.1.1.1.1.1.1.1.1.L s.L 1.1.1.L K K K L 1.1.L L 1.1.w.3.1.",
"1.1.1.1.1.1.1.1.1.1.L K L 1.1.1.1.L L 1.1.1.1.1.1.1.1.1.1.e.1.1.6.0.0.0.6.1.1.1.1.1.2.3.U e.U 6.L 1.1.1.1.1.1.1.9.U 6.w.3.w.U 9.",
"1.1.1.1.1.1.1.1.6.w.6.1.1.6.2.6.1.6.p.1.1.1.1.1.1.1.1.1.6.6.1.1.1.1.1.1.1.1.1.1.1.1.d.i.i.0.6.w.L 1.1.1.1.1.1.6.6.e.w.9.0.6.w.U ",
"s.U 1.6.6.1.6.e.w.e.s.1.6.s.s.6.6.p.0.p.6.1.1.1.1.1.1.6.6.3.6.6.w.1.1.1.1.1.1.1.1.6.w.s.s.0.6.0.3.1.e.d.i.1.1.w.6.0.2.6.6.0.0.e."
};
